<svg id="Ebene_1" data-name="Ebene 1" xmlns="http://www.w3.org/2000/svg" width="99.32365mm" height="50.30817mm" viewBox="0 0 281.54736 142.60583"><defs><style>.cls-1{fill:#2a255c;}.cls-2{fill:#006e35;}.cls-3{fill:#ef7b24;}.cls-4{fill:#f1e400;}.cls-5{fill:#009740;}.cls-6{fill:#00a1c9;}</style></defs><path class="cls-1" d="M107.3979,24.1252a142.88248,142.88248,0,0,1-2.664,17.89061c-.4829,2.085-1.4444,11.0156-8.3711,11.1299-7.2442.1182-7.6006-1.3076-7.6006-1.3076s3.563.7119,5.582-4.9873c2.0186-5.7002,3.4824-26.8594,4.6314-34.086C100.85061.97871,102.999.19361,102.999.19361l8.8027,3.1894L108.769,22.3742"/><path class="cls-2" d="M129.4448,15.76s-1.105,8.3076-2.3218,23.5341c-.4004,4.9776.3516,18.7373-1.0429,20.1329-.0342.03319-9.2901.8437-9.2901.8437s.1426-26.3369.7368-29.6631c.5943-3.3242.833-29.0615,6.02791-29.9121.00829-.001,3.46339,3.833,5.86229,4.47069,1.9258.51171,2.957,3.72661,2.957,3.72661Z"/><path class="cls-3" d="M148.144,27.968s-3.3925,28.5156-5.4629,27.2783c-.9629-.5752-7.0083-1.3887-7.0083-1.3887s3.4556-15.77341,3.9742-21.0273c.5166-5.2539,2.0488-20.1582,4.8212-20.1582a15.16606,15.16606,0,0,1,2.5782,2.6162c1.1347,1.5674.1992,1.1592,1.8086,3.416Z"/><path class="cls-4" d="M157.0874,38.42311s-5.7051,1.5107-5.7246,1.5029c-1.4278-.6123-4.3946-3.1817-4.3946-13.9385,0-12.3477-2.5019-13.31931-2.5019-13.31931l7.125,5.13771s2.4238,1.1367,1.43941,11.2109c-.68751,7.0186,4.05669,9.4063,4.05669,9.4063"/><path class="cls-5" d="M142.90971,55.32341c-1.52931-.8398-.70321-5.3857-2.129-16.07321C139.355,28.56071,137.57371,5.383,135.9116,2.65161,134.248-.08089,123.53471.68281,123.53471.68281s2.92039,2.9229,4.34519,11.5938c1.42381,8.6699,2.644,45.0107,5.957,45.3955.707.082,9.0806-2.3457,9.07281-2.3487"/><path class="cls-6" d="M126.06,59.43771s-1.54-.5137-2.71329-5.8662c-1.49271-6.8096-5.065-22.5176-6.20071-31.78031-1.13529-9.26269-2.4932-20.30759-3.562-21.25879-1.0694-.95021-10.585-.3388-10.585-.3388a47.203,47.203,0,0,1,1.6777,7.34659c1.13819,6.83211,1.43609,10.03911,3.45609,25.69441,2.021,15.6552,3.5508,25.7295,5.9258,27.2734s12.0014-1.0703,12.0014-1.0703"/><path class="cls-5" d="M133.28371,100.23561h8.29979c5.8164,0,9.582-2.9512,9.582-8.2129a6.91834,6.91834,0,0,0-5.9043-7.22951v-.086a6.57021,6.57021,0,0,0,5.2188-6.88669c0-3.3369-2.2246-7.1875-8.7266-7.1875H133.541l-.25729,29.6026Zm3.89349-14.0313h3.4649c4.2773,0,6.8437,1.8818,6.8437,5.4756,0,4.0644-2.3965,5.7324-6.16009,5.7324H137.0054l.1718-11.208Zm.084-13.0039h2.9531c4.7051,0,6.586,1.7969,6.586,5.09079,0,2.99421-1.9668,5.08991-6.8438,5.08991h-2.7793l.084-10.1807Zm19.97851,27.0352h3.42189l.1699-21.3038h-3.42179l-.17,21.3038Zm0-25.752h3.67779V70.633h-3.67779v3.8506ZM169.2163,89.5842c0-5.90429,3.4648-8.68359,6.6719-8.68359,3.4648,0,6.332,2.7793,6.332,8.68359,0,5.90331-3.4648,8.68261-6.6738,8.68261-3.4649,0-6.3301-2.7793-6.3301-8.68261Zm-3.6797,0c0,7.01461,3.7227,11.25,9.9668,11.25,6.7598,0,10.3945-5.73149,10.3945-11.25,0-6.97269-3.7207-11.251-9.9668-11.251-6.7578,0-10.3945,5.73241-10.3945,11.251Zm23.0137-10.65239V81.4992h3.6367l-.0859,7.78521c-.043,2.9521-.043,4.706-.043,6.1172,0,3.3798,1.2832,5.43259,4.5781,5.43259a10.40238,10.40238,0,0,0,5.3457-1.83889l-1.1113-2.2246a7.47269,7.47269,0,0,1-3.42189,1.2402c-1.45511,0-1.96871-.9834-1.96871-2.7373,0-1.0693,0-2.6523.0429-5.0488l.086-8.72561h5.8613V78.93181h-5.8184l.086-7.8701H192.314l-.084,7.8701Zm33.8359,10.1817v-.6846c0-5.7314-2.48049-10.09571-8.2129-10.09571s-9.7519,5.38971-9.7519,11.251c0,6.97171,3.4218,11.25,9.3242,11.25a11.67834,11.67834,0,0,0,8.1289-3.80669l-1.668-1.8408c-1.83979,1.6699-3.6367,3.0801-6.0761,3.0801-4.3633,0-6.0313-3.9775-6.0313-8.4268v-.7265Zm-13.9883-2.3106c.5567-2.9091,2.6114-5.9023,5.8184-5.9023,3.4648,0,4.748,2.8652,4.748,5.9023Zm34.3516-4.9189a8.92071,8.92071,0,0,0-6.9746-3.55081c-5.8164,0-9.9668,5.38971-9.9668,11.251,0,7.05761,4.1504,11.25,9.4551,11.25a8.83037,8.83037,0,0,0,7.18751-3.54979l-1.75591-2.0108a6.76,6.76,0,0,1-4.832,2.7373c-3.2949,0-6.375-2.9951-6.375-7.7861,0-5.9873,3.25191-9.0674,6.41791-9.0674a5.89546,5.89546,0,0,1,4.61919,2.4805l2.2246-1.7539Zm5.3027,18.3516h3.4219l.1719-14.8868c2.1816-2.6513,4.1484-3.9355,6.373-3.9355,2.3535,0,3.8946,1.0703,3.8946,3.37989,0,2.09571-.043,3.97751-.043,5.86031l-.08589,9.5821h3.42179l.086-10.5665c0-1.625.0429-3.25091.0429-4.87591,0-3.93559-1.5839-6.46-6.5019-6.46a9.10982,9.10982,0,0,0-7.1445,3.93561h-.086l.1699-14.1163h-3.5488l-.1719,32.0831Z"/><path class="cls-6" d="M25.65771,100.23561h5.6035l.043-11.5918h3.0371c5.7319,0,10.7798-2.9092,10.7798-8.9844,0-5.5186-3.0801-9.0264-10.8228-9.0264H25.957l-.2993,29.6026Zm5.7319-16.0411.0855-9.11231h2.9087c3.9785,0,5.0053,2.73831,5.0053,4.53521,0,2.7803-2.267,4.5771-5.2192,4.5771Zm19.7632,16.0411h16.1265v-4.7051h-10.523l.043-8.128h10.3091v-4.4492H56.84181l.0859-7.6142h10.3516V70.633H51.45211l-.2993,29.6026Zm23.3989,0h17.0679v-4.7051H80.02681l.2569-24.8975h-5.4756l-.2564,29.6026Zm25.4952-14.8018c0-6.8867,5.1757-10.9502,10.13809-10.9502,6.11671,0,10.13771,4.6621,10.13771,10.9502,0,5.8613-4.021,10.9512-10.13771,10.9512-6.11709,0-10.13809-4.4912-10.13809-10.9512Zm-5.7325,0c0,8.98339,6.8872,15.40039,15.87059,15.40039,8.983,0,15.86971-6.75879,15.86971-15.40039,0-8.64061-6.28811-15.3984-15.86971-15.3984a15.52324,15.52324,0,0,0-15.87059,15.3984Z"/><path d="M24.21387,136.07636a1.90109,1.90109,0,0,1-1.78565-1.1289q-1.0144-1.97169-1.21435-12.05664-.09961-4.81494-1.271-4.81446-1.11474,0-2.82861,4.14258a47.73691,47.73691,0,0,0-1.82862,5.40039,20.63027,20.63027,0,0,0-1.05712,5.89942,2.23173,2.23173,0,0,1-.17139.98632q-.24317.62843-.71436.62793a.64336.64336,0,0,1-.52881-.34277,1.0407,1.0407,0,0,1-.17138-.52832q0-.88623.12842-2.67187.12889-1.78564.1289-2.68555,0-2.89893-.20019-4.89942-.37134-3.74267-1.19971-3.74316-.80053,0-2.2002,3.15723a40.60214,40.60214,0,0,0-3.043,9.05664q-.05714.90087-.29981,2.60058a.83886.83886,0,0,1-.91455.71387q-.75732,0-.75684-.85742,0,.07178.24268-2.01367A92.8199,92.8199,0,0,0,5.05713,122.676q0-2.57079-.686-2.57129-.48559,0-1.38574,1.05664-.59985.78663-1.19971,1.55762-.70018.87159-1.043.8711Q0,123.59,0,122.77656q0-.687,1.98535-2.25781a6.21109,6.21109,0,0,1,2.61426-1.543q1.32861,0,1.67139,2.31445a27.63481,27.63481,0,0,1,.11474,3.27148q0,.82911-.1289,3.35743,2.98608-8.80078,5.42871-8.79981,1.67138,0,2.14306,3.65723a44.602,44.602,0,0,1,.18555,5.02832q.38526-1.74317.62842-2.65723a22.14687,22.14687,0,0,1,1.92871-4.8291q1.79956-3.34276,3.5-3.34277,2.05737,0,2.31445,4.415l.32813,5.75683q.24316,4.29931.25732,4.38574.3999,3.48487,1.3999,3.48536a.90459.90459,0,0,0,.57862-.35743q.33545-.35595.53564-.35644a.41978.41978,0,0,1,.25733.09961.55372.55372,0,0,1,.20019.65722,1.34211,1.34211,0,0,1-.78613.74317A2.33017,2.33017,0,0,1,24.21387,136.07636Z"/><path d="M29.69922,135.11933a2.1597,2.1597,0,0,1-1.98535-.84277,3.34751,3.34751,0,0,1-.686-2.15723,12.64123,12.64123,0,0,1,1.05029-4.76465q1.04957-2.56347,1.96436-2.56445.82837,0,.82861.7002a2.09093,2.09093,0,0,1-.47168.82812,9.40032,9.40032,0,0,0-2.25732,5.55762q0,2.228,1.11475,2.22851,1.6853,0,3.2998-3.07129a9.85414,9.85414,0,0,0,1.41406-4.27148q0-2.32909-1.15674-2.3291a2.86252,2.86252,0,0,0-1.88574.94336l-.21435-.12891a.37.37,0,0,1-.2002-.34277q0-.48486,1.02881-.98535a3.3647,3.3647,0,0,1,1.27148-.41407q2.31374,0,2.39991,3.57129a9.683,9.683,0,0,1-1.52881,4.55664Q31.8562,134.9333,29.69922,135.11933Z"/><path d="M38.68457,127.30488q1.771-4.51466,3.79981-4.51465a1.40979,1.40979,0,0,1,1.57177,1.22852q.12817.74267-.48584.74316a.29528.29528,0,0,1-.28564-.17187,2.18824,2.18824,0,0,1-.11426-.35645l-.02881-.15723a.3347.3347,0,0,0-.37158-.28613q-.69947,0-1.78564,1.48633a13.16155,13.16155,0,0,0-1.78565,3.19922,10.21169,10.21169,0,0,0-.51416,3.543q0,.07177.1001,2.3291a.668.668,0,0,1-.27881.50683.85728.85728,0,0,1-.54981.23536q-.80054,0-.70019-1.24219.25709-2.88574.25732-4.80078a44.62,44.62,0,0,0-.25732-4.48536.94486.94486,0,0,1,.80029-.88574.71464.71464,0,0,1,.68555.47168,1.14854,1.14854,0,0,1,.11426.64258A18.82672,18.82672,0,0,0,38.68457,127.30488Z"/><path d="M44.42773,129.56171a3.3301,3.3301,0,0,0-.5498,1.38575,8.373,8.373,0,0,0-.293,2.01465q0,1.11327,1.47168,1.11425a5.47424,5.47424,0,0,0,3.314-1.64355,9.19951,9.19951,0,0,0,2.55712-3.29981h.45752q.271.25782.18555.48633a8.714,8.714,0,0,1-2.77148,3.98535,5.80266,5.80266,0,0,1-3.69971,1.52832,2.41836,2.41836,0,0,1-2.07178-.94238,3.56811,3.56811,0,0,1-.6001-2.42871,11.21882,11.21882,0,0,1,2.28614-5.31445q2.32836-3.3999,4.24267-3.40039a1.07889,1.07889,0,0,1,.98584.60058,1.82109,1.82109,0,0,1,.25684.92871,6.09385,6.09385,0,0,1-1.18555,3.21387q-1.40038,2.18555-3.21435,2.18555a2.035,2.035,0,0,1-1.314-.3711Zm4.35743-5.51464a1.85544,1.85544,0,0,0-.98584.65722q-2.97144,3.48633-2.9712,4.05762,0,.15673.65723.2002,1.114.05712,2.42822-1.60059a4.86934,4.86934,0,0,0,1.28565-2.88574Q49.19922,123.93379,48.78516,124.04707Z"/><path d="M63.584,125.633a6.59249,6.59249,0,0,1,1.543-.15722,2.20135,2.20135,0,0,1,.98584.30078q.72876.3999.72852.94238a.40507.40507,0,0,1-.043.18555l-.01416.043q0-.02784-.05713.11425c-.105.03809-.14307.0625-.11426.07129H66.584a.44387.44387,0,0,1-.1997.043c-.05713,0-.13379-.05176-.22852-.15722a.97485.97485,0,0,0-.94287-.68555,1.79054,1.79054,0,0,0-.51416.08594,4.549,4.549,0,0,0-1.229.543c0,.04785-.00489.124-.01416.22851a20.932,20.932,0,0,0-.1001,3.48535q.14281,3.78663,1.70019,3.78614a1.05453,1.05453,0,0,0,.81446-.457c.24756-.30468.41894-.458.51416-.458.30468,0,.457.14355.457.42871q0,.51416-.84277.97168a2.5719,2.5719,0,0,1-1.043.37109,2.318,2.318,0,0,1-2.07129-1.41406,6.02,6.02,0,0,1-.67139-2.24317,21.64353,21.64353,0,0,1-.02881-4.2998,8.04078,8.04078,0,0,0-1.92822,1.11426.445.445,0,0,1-.27148.11426q-.386,0-.38575-.79981,0-.49951,2.35694-1.61426c.09521-.01855.19043-.043.28564-.07129q.10035-.97119.31445-2.90039.2146-1.92772.957-1.92773.61449,0,.65722.7998Z"/><path d="M69.94092,130.96211l.12842-.30079q2.28588-5.62792,4.20019-5.62793,1.59961,0,2.01416,4.6709.07178,1.11476.32861,3.043.22852,1.18653.62842,1.18555a.90581.90581,0,0,0,.62158-.25c.18555-.166.31641-.25.39307-.25a.36661.36661,0,0,1,.41406.415q0,.38524-.60009.71386a1.93332,1.93332,0,0,1-.84278.27149q-1.75707,0-2.21435-4.64258-.0857-1.1001-.32862-3.01465-.19995-1.17041-.51416-1.1709-.82836,0-2.12841,2.62793a18.65348,18.65348,0,0,0-2.02881,6.62891.63984.63984,0,0,1-.26416.39941.762.762,0,0,1-.49268.21485.33864.33864,0,0,1-.32861-.22852,16.22477,16.22477,0,0,1-.21436-3.65722,57.24116,57.24116,0,0,1,.92871-8.59961q.99976-6.17139,1.84278-6.17188a.62529.62529,0,0,1,.71435.7002q0,.01464-.5,1.57129a23.732,23.732,0,0,0-.75732,2.91406A63.13432,63.13432,0,0,0,69.94092,130.96211Z"/><path d="M89.146,133.87617q-1.36305-.48633-1.3628-3.17188v-.585a24.97909,24.97909,0,0,1-3.10254,3.44238q-2.17821,1.99952-3.43017,2a1.1379,1.1379,0,0,1-.71192-.22851,1.47274,1.47274,0,0,1-.5122-1.25684q0-1.78564,1.91406-4.81445a21.21347,21.21347,0,0,1,4.05713-4.77148q2.40015-2.04347,3.55713-1.28614a1.59387,1.59387,0,0,1,.543,1.44336q0,1.314-.89991,1.39942-.62915.04393-.6289-.44239a.28425.28425,0,0,1,.02881-.1289,3.03877,3.03877,0,0,0,.25732-1.19922c0-.21-.02393-.30957-.07178-.30078q-1.4143.25781-4.57861,4.36426-3.16407,4.10742-3.16406,5.665,0,.542.48584.542,1.24291,0,3.8999-3.21387,1.84278-2.228,2.01416-2.47168a4.59877,4.59877,0,0,0,.92871-2.07129.62992.62992,0,0,1,.68555-.64258q.87158,0,.70019.84278a37.02889,37.02889,0,0,0-.70019,4.47168q0,1.45605.64306,1.62793a.65765.65765,0,0,0,.48584-.085q.21387-.12889.24268-.25781a.688.688,0,0,1,.71435-.61426q.34278,0,.34278.37207a1.1421,1.1421,0,0,1-.08594.38575,1.60933,1.60933,0,0,1-1.60644,1.11425A1.763,1.763,0,0,1,89.146,133.87617Z"/><path d="M95.01172,130.31855l.24267-.42773q3.07179-5.2002,4.35743-5.2002,1.21362,0,1.61425,1.78516.12817,1.35791.25733,2.71484.22777,2.228.28564,2.52832.32813,1.99952.957,2,.271,0,.74268-.5l.52881.17188a1.00591,1.00591,0,0,1-.48584.91406,1.27081,1.27081,0,0,1-.71436.27148q-2.05663,0-2.543-4.64355-.08568-1.09863-.2998-3.01367-.15747-1.17187-.3999-1.17188-.48559,0-2.39307,3.00781a23.57612,23.57612,0,0,0-2.69287,5.54981q-.2.68555-.69971.68555-.64307,0-.58593-.64258.01464-.22852.91455-6.05762.04248-.728.14257-2.01367.11427-1.17187.85743-1.17188a.593.593,0,0,1,.58545.31446c.05712.21875.11425.43359.17138.64257Z"/><path d="M121.76807,132.73359a9.25959,9.25959,0,0,1-2.77149,2.38574,7.14228,7.14228,0,0,1-3.52881,1.02832,4.0347,4.0347,0,0,1-3.28564-1.65722,5.37768,5.37768,0,0,1-1.19971-3.457v-1.043a12.80016,12.80016,0,0,1,1.35694-5.11426,17.75945,17.75945,0,0,1,3.47119-5.17188,6.748,6.748,0,0,1,4.67187-2.37109,3.054,3.054,0,0,1,1.28565.37109q.90014.44385.8999.957a.77791.77791,0,0,1-.28613.60743.91856.91856,0,0,1-.61524.25,5.41056,5.41056,0,0,1-.78662-.32813,3.01951,3.01951,0,0,0-1.20166-.3291q-2.3606,0-5.03564,4.40039-2.48877,4.11474-2.48926,6.88574a7.51037,7.51037,0,0,0,.61523,3.24317,2.49355,2.49355,0,0,0,2.34571,1.61425,6.32849,6.32849,0,0,0,3.07519-1.01464,12.11816,12.11816,0,0,0,4.44824-5q.301-.57129.64356-.57129.32886,0,.47217.59961a8.072,8.072,0,0,1-.94288,1.92871A17.15314,17.15314,0,0,1,121.76807,132.73359Z"/><path d="M127.38135,135.11933a2.1597,2.1597,0,0,1-1.98535-.84277,3.34745,3.34745,0,0,1-.686-2.15723,12.64123,12.64123,0,0,1,1.05029-4.76465q1.04956-2.56347,1.96436-2.56445.82838,0,.82861.7002a2.09093,2.09093,0,0,1-.47168.82812,9.40032,9.40032,0,0,0-2.25732,5.55762q0,2.228,1.11474,2.22851,1.68531,0,3.29981-3.07129a9.85414,9.85414,0,0,0,1.41406-4.27148q0-2.32909-1.15674-2.3291a2.86252,2.86252,0,0,0-1.88574.94336l-.21435-.12891a.37.37,0,0,1-.2002-.34277q0-.48486,1.02881-.98535a3.3647,3.3647,0,0,1,1.27148-.41407q2.31372,0,2.39991,3.57129a9.683,9.683,0,0,1-1.52881,4.55664Q129.53833,134.9333,127.38135,135.11933Z"/><path d="M151.15381,134.19062q-1.229,0-2.01465-1.78613a6.29775,6.29775,0,0,1-.61426-2.52832v-1.38574a15.193,15.193,0,0,0-.02832-1.68555q-.07177-.82911-.28515-.8291a9.26813,9.26813,0,0,0-.72559,1.08593q-2.32032,3.62842-2.50488,3.88575-1.93653,2.68652-3.03223,2.68554-1.09571,0-1.19531-2.38574-.02929-.65625.1289-4.15722.02784-.78516-.1289-.78516-.457,0-2.40039,3.52832a16.57979,16.57979,0,0,0-2.11426,4.90039q-.04248.52734-.65723.52832-.28564,0-.51416-.91406a5.3083,5.3083,0,0,1-.15722-1.043q0-2.61475.1289-4.5a15.45657,15.45657,0,0,1,.43946-2.957q.34058-1.314.78027-1.31446a.857.857,0,0,1,.57471.22852q.2622.22851.20605.44238a24.101,24.101,0,0,0-.87207,6.25782q1.53955-2.77149,2.1377-3.7002Q140.044,125.09,141.02783,125.09q1.18214,0,1.126,2.81445-.01172.30029-.07031,1.35742-.0586.97119-.0586,1.543a5.00606,5.00606,0,0,0,.21387,1.6709q.5127-.15673,1.78223-1.85645,1.0415-1.42822,1.76855-2.65722,1.88232-3.25782,2.73731-3.25782.85547,0,1.084,1.64356.07178,1.01367.21387,3.11426.2578,3.81444,1.34277,3.84277a.87281.87281,0,0,0,.73633-.42188q.32081-.43506.52051-.43554.3999,0,.40039.42871a1.18282,1.18282,0,0,1-.71387,1A2.04679,2.04679,0,0,1,151.15381,134.19062Z"/><path d="M156.13818,127.93281q2.92822-4.24219,5.81446-4.24219,1.8999,0,1.90039,2.71387a8.68716,8.68716,0,0,1-2,4.97168q-2.07129,2.82861-3.98633,2.82812a1.28743,1.28743,0,0,1-1.44238-1.4707,3.08779,3.08779,0,0,1,.2998-1.15723h.59961a2.21719,2.21719,0,0,1-.02832.61426,4.06129,4.06129,0,0,0-.05664.58594c0,.21875.12793.32812.38574.32812q1.81349,0,3.5-2.88574a8.81665,8.81665,0,0,0,1.48535-4.14258q0-1.44286-.77148-1.44336-1.54248,0-3.61426,2.543a9.69957,9.69957,0,0,0-2.18555,3.79981,30.41869,30.41869,0,0,0-.57128,5.98633q-.05713,4.78564,1.39941,4.78515a1.15044,1.15044,0,0,0,.15039-.0498q.13623-.04981.72168-.26465v.543q0,.271-.457.47168a1.25629,1.25629,0,0,1-.543.15722q-1.19971-.11425-1.85742-1.74316a8.85667,8.85667,0,0,1-.55762-2.9707c-.01855-.53418-.02832-1.08106-.02832-1.64356q0-3.04248.7002-10.65722.19922-2.08448,1.21386-2.085.64306,0,.64356.69922a1.0218,1.0218,0,0,1-.01465.17188Z"/><path d="M166.58057,129.56171a3.323,3.323,0,0,0-.54981,1.38575,8.373,8.373,0,0,0-.293,2.01465q0,1.11327,1.47168,1.11425a5.47436,5.47436,0,0,0,3.31348-1.64355,9.20149,9.20149,0,0,0,2.55762-3.29981h.457c.18066.17188.24316.334.18554.48633a8.7066,8.7066,0,0,1-2.77148,3.98535,5.80247,5.80247,0,0,1-3.69922,1.52832,2.41866,2.41866,0,0,1-2.07226-.94238,3.56533,3.56533,0,0,1-.59961-2.42871,11.20887,11.20887,0,0,1,2.28613-5.31445q2.32764-3.3999,4.24219-3.40039a1.07958,1.07958,0,0,1,.98632.60058,1.8259,1.8259,0,0,1,.25684.92871,6.09806,6.09806,0,0,1-1.18555,3.21387q-1.40038,2.18555-3.21484,2.18555a2.03354,2.03354,0,0,1-1.31348-.3711Zm4.35742-5.51464a1.85835,1.85835,0,0,0-.98633.65722q-2.97071,3.48633-2.9707,4.05762,0,.15673.65722.2002,1.11328.05712,2.42774-1.60059a4.87048,4.87048,0,0,0,1.28613-2.88574C171.35205,124.11445,171.21338,123.97187,170.938,124.04707Z"/><path d="M177.523,125.633a6.59529,6.59529,0,0,1,1.543-.15722,2.20306,2.20306,0,0,1,.98633.30078q.728.3999.72851.94238a.41137.41137,0,0,1-.043.18555l-.01465.043c0-.01856-.01855.01953-.05664.11425-.10546.03809-.14355.0625-.11425.07129h-.0293a.44034.44034,0,0,1-.19922.043c-.05762,0-.13379-.05176-.22852-.15722a.97541.97541,0,0,0-.94335-.68555,1.78488,1.78488,0,0,0-.51368.08594,4.55174,4.55174,0,0,0-1.22949.543c0,.04785-.00488.124-.01367.22851a20.98048,20.98048,0,0,0-.10059,3.48535q.14356,3.78663,1.7002,3.78614a1.05452,1.05452,0,0,0,.81445-.457c.24805-.30468.41895-.458.51465-.458.30469,0,.457.14355.457.42871q0,.51416-.84277.97168a2.57186,2.57186,0,0,1-1.043.37109,2.317,2.317,0,0,1-2.07129-1.41406,6.0295,6.0295,0,0,1-.67187-2.24317,21.60559,21.60559,0,0,1-.02832-4.2998,8.04233,8.04233,0,0,0-1.92872,1.11426.44389.44389,0,0,1-.27148.11426q-.38526,0-.38574-.79981,0-.49951,2.35742-1.61426c.09473-.01855.19043-.043.28516-.07129q.10107-.97119.31445-2.90039.21533-1.92772.957-1.92773.61524,0,.65723.7998Z"/><path d="M184.19482,129.56171a3.30947,3.30947,0,0,0-.5498,1.38575,8.373,8.373,0,0,0-.293,2.01465q0,1.11327,1.4707,1.11425a5.474,5.474,0,0,0,3.31446-1.64355,9.2124,9.2124,0,0,0,2.55761-3.29981h.457c.18066.17188.24316.334.18554.48633a8.72123,8.72123,0,0,1-2.77148,3.98535,5.80283,5.80283,0,0,1-3.7002,1.52832,2.418,2.418,0,0,1-2.07129-.94238,3.57073,3.57073,0,0,1-.60058-2.42871,11.22883,11.22883,0,0,1,2.28613-5.31445q2.32909-3.3999,4.24316-3.40039a1.0782,1.0782,0,0,1,.98536.60058,1.81752,1.81752,0,0,1,.25781.92871,6.09806,6.09806,0,0,1-1.18555,3.21387q-1.40038,2.18555-3.21484,2.18555a2.03651,2.03651,0,0,1-1.31446-.3711Zm4.35645-5.51464a1.85613,1.85613,0,0,0-.98535.65722q-2.97071,3.48633-2.97168,4.05762c0,.10449.21972.1709.65722.2002q1.11476.05712,2.42872-1.60059a4.87048,4.87048,0,0,0,1.28613-2.88574Q188.96631,123.93379,188.55127,124.04707Z"/><path d="M194.60791,130.31855l.24219-.42773q3.07178-5.2002,4.35742-5.2002,1.21436,0,1.61426,1.78516.1289,1.35791.25683,2.71484.22853,2.228.28614,2.52832.32813,1.99952.957,2,.271,0,.74316-.5l.52832.17188a1.00642,1.00642,0,0,1-.48535.91406,1.2746,1.2746,0,0,1-.71484.27148q-2.05665,0-2.543-4.64355-.085-1.09863-.29981-3.01367-.15673-1.17187-.40039-1.17188-.48486,0-2.39258,3.00781a23.55337,23.55337,0,0,0-2.69238,5.54981q-.20068.68555-.70019.68555-.64307,0-.58594-.64258.01464-.22852.91406-6.05762.044-.728.14356-2.01367.11425-1.17187.85644-1.17188a.59281.59281,0,0,1,.58594.31446c.05762.21875.11426.43359.17187.64257Z"/><path d="M213.29248,125.31855a1.31109,1.31109,0,0,1-.81445-.51367,1.37091,1.37091,0,0,0-.97168-.51465q-1.75635,0-3.585,3.24316a10.19655,10.19655,0,0,0-1.61426,4.48536q0,1.80028,1.51367,1.7998a5.29671,5.29671,0,0,0,2.97168-.98535,8.31823,8.31823,0,0,0,2.3291-2.41406.25619.25619,0,0,1,.22852-.15723.42462.42462,0,0,1,.32812.22852.46381.46381,0,0,1,.11426.37109,6.80062,6.80062,0,0,1-1.59961,1.915,13.20553,13.20553,0,0,1-1.65723,1.48535,5.87828,5.87828,0,0,1-1.77148.77148q-.04248,0-.37207.03516c-.21875.02441-.33789.03613-.35645.03613a2.56939,2.56939,0,0,1-2.24316-1.07129,3.73423,3.73423,0,0,1-.62891-2.21484,10.22243,10.22243,0,0,1,1.88575-5.11426q2.17236-3.4702,4.60058-3.48535a3.33379,3.33379,0,0,1,1.21387.35742q1.043.457,1.08594,1.11426a.46706.46706,0,0,1-.22168.457A.80856.80856,0,0,1,213.29248,125.31855Z"/><path d="M217.27881,129.56171a3.30929,3.30929,0,0,0-.54981,1.38575,8.37294,8.37294,0,0,0-.293,2.01465q0,1.11327,1.4707,1.11425a5.474,5.474,0,0,0,3.31445-1.64355,9.21232,9.21232,0,0,0,2.55762-3.29981h.457c.18066.17188.24316.334.18555.48633a8.72133,8.72133,0,0,1-2.77149,3.98535,5.80279,5.80279,0,0,1-3.70019,1.52832,2.418,2.418,0,0,1-2.07129-.94238,3.56538,3.56538,0,0,1-.59961-2.42871,11.21545,11.21545,0,0,1,2.28515-5.31445q2.32911-3.3999,4.24317-3.40039a1.07819,1.07819,0,0,1,.98535.60058,1.81743,1.81743,0,0,1,.25781.92871,6.098,6.098,0,0,1-1.18554,3.21387q-1.4004,2.18555-3.21485,2.18555a2.03648,2.03648,0,0,1-1.31445-.3711Zm4.35644-5.51464a1.85616,1.85616,0,0,0-.98535.65722q-2.97071,3.48633-2.97168,4.05762c0,.10449.21973.1709.65723.2002q1.11474.05712,2.42871-1.60059a4.87048,4.87048,0,0,0,1.28613-2.88574Q222.05029,123.93379,221.63525,124.04707Z"/><path d="M250.24951,132.73359a9.25955,9.25955,0,0,1-2.77148,2.38574,7.1434,7.1434,0,0,1-3.52832,1.02832,4.03494,4.03494,0,0,1-3.28614-1.65722,5.37816,5.37816,0,0,1-1.20019-3.457v-1.043a12.81012,12.81012,0,0,1,1.35742-5.11426,17.75119,17.75119,0,0,1,3.47168-5.17188,6.74519,6.74519,0,0,1,4.6709-2.37109,3.05385,3.05385,0,0,1,1.28613.37109q.89942.44385.89942.957a.77486.77486,0,0,1-.28614.60743.9167.9167,0,0,1-.61523.25,5.47019,5.47019,0,0,1-.78613-.32813,3.01945,3.01945,0,0,0-1.20215-.3291q-2.35986,0-5.03516,4.40039-2.48877,4.11474-2.48926,6.88574a7.51022,7.51022,0,0,0,.61524,3.24317,2.49308,2.49308,0,0,0,2.3457,1.61425,6.327,6.327,0,0,0,3.0752-1.01464,12.11823,12.11823,0,0,0,4.44824-5q.30028-.57129.64355-.57129.3296,0,.47266.59961a8.08161,8.08161,0,0,1-.94336,1.92871A17.151,17.151,0,0,1,250.24951,132.73359Z"/><path d="M254.86377,129.56171a3.30929,3.30929,0,0,0-.54981,1.38575,8.37294,8.37294,0,0,0-.293,2.01465q0,1.11327,1.4707,1.11425a5.474,5.474,0,0,0,3.31445-1.64355,9.21232,9.21232,0,0,0,2.55762-3.29981h.457c.18066.17188.24316.334.18555.48633a8.72125,8.72125,0,0,1-2.77149,3.98535,5.80279,5.80279,0,0,1-3.70019,1.52832,2.418,2.418,0,0,1-2.07129-.94238,3.56538,3.56538,0,0,1-.59961-2.42871,11.21538,11.21538,0,0,1,2.28516-5.31445q2.32909-3.3999,4.24316-3.40039a1.07818,1.07818,0,0,1,.98535.60058,1.81743,1.81743,0,0,1,.25781.92871,6.098,6.098,0,0,1-1.18554,3.21387q-1.4004,2.18555-3.21485,2.18555a2.03648,2.03648,0,0,1-1.31445-.3711Zm4.35644-5.51464a1.8562,1.8562,0,0,0-.98535.65722q-2.97071,3.48633-2.97168,4.05762c0,.10449.21973.1709.65723.2002q1.11474.05712,2.42871-1.60059a4.87048,4.87048,0,0,0,1.28613-2.88574Q259.63525,123.93379,259.22021,124.04707Z"/><path d="M264.106,130.36152q-.01318-.59912-.01367-1.32813a67.40888,67.40888,0,0,1,.42871-7.543q.48486-4.229,1.085-4.22852.74266,0,.74316.81445c-.00976.085-.03808.252-.08594.5l-.17089,1.01368q-.27247,1.51464-.37208,2.3291a66.62607,66.62607,0,0,0-.39941,7.71386q0,5.21485,1.82813,5.21485a.56211.56211,0,0,0,.5-.25781h.3291l.25683.25781.01465.041a1.08957,1.08957,0,0,1,.02832.26368,1.52043,1.52043,0,0,1-1.22851.59472,2.27233,2.27233,0,0,1-1.90039-1.25683A8.37112,8.37112,0,0,1,264.106,130.36152Z"/><path d="M269.19092,130.36152q-.01319-.59912-.01367-1.32813a67.40888,67.40888,0,0,1,.42871-7.543q.48486-4.229,1.085-4.22852.74268,0,.74316.81445c-.00976.085-.03808.252-.08594.5l-.17089,1.01368q-.27246,1.51464-.37207,2.3291a66.62368,66.62368,0,0,0-.39942,7.71386q0,5.21485,1.82813,5.21485a.56211.56211,0,0,0,.5-.25781h.3291l.25683.25781.01465.041a1.08957,1.08957,0,0,1,.02832.26368,1.52043,1.52043,0,0,1-1.22851.59472,2.27233,2.27233,0,0,1-1.90039-1.25683A8.37112,8.37112,0,0,1,269.19092,130.36152Z"/><path d="M281.04736,124.84785a2.31385,2.31385,0,0,1-.56445-.25781,2.0139,2.0139,0,0,0-.72168-.27149q-.97119-.085-2.71387,1.415-1.80029,1.54248-1.80078,2.64258,0,.58593,2.08594.58594,4.02833,0,4.02832,2.24218a3.52222,3.52222,0,0,1-1.78125,2.84278,5.60516,5.60516,0,0,1-3.23633,1.14355,2.22078,2.22078,0,0,1-1.32617-.44336,1.52262,1.52262,0,0,1-.71289-1.2998,1.50031,1.50031,0,0,1,.28223-.77149q.32518-.51416.6914-.51465a.50407.50407,0,0,1,.19824.043,2.79521,2.79521,0,0,1-.166.77149.881.881,0,0,0-.06348.3291q0,.64307.76953.64258a6.13526,6.13526,0,0,0,2.707-.77149q1.69483-.85694,1.69532-1.7998a1.135,1.135,0,0,0-.58692-.97168,2.14649,2.14649,0,0,0-1.07422-.34278l-2.748-.0996a4.02358,4.02358,0,0,1-1.332-.28614q-.87306-.34276-.87305-.91406,0-1.415,2.22168-3.5791,2.22071-2.16357,3.75-2.16406a2.31476,2.31476,0,0,1,1.043.3291q.728.3999.72851.88574Q281.54736,124.84736,281.04736,124.84785Z"/><path d="M233.32275,119.25312l.07618-.01953a1.27181,1.27181,0,0,1,.209-.01855,1.839,1.839,0,0,1,1.67676.95214l-.16211.56153a2.08477,2.08477,0,0,0-1.59961-.666,2.625,2.625,0,0,0-.39063.14258,17.39494,17.39494,0,0,0-.248,2.124v1.71387q0,1.44726.50488,1.74316a3.27075,3.27075,0,0,1,.667.53321q-.58153.11426-.60058.11426-.81885,0-1.22852-1.18067a5.7743,5.7743,0,0,1-.27539-1.8291,10.22852,10.22852,0,0,1,.16113-1.52344,11.82987,11.82987,0,0,0,.18164-1.50488q-1.15283.28564-1.63867.42871a10.71755,10.71755,0,0,0-1.58984.59961q-.57276.21972-1.57227.63867a3.46736,3.46736,0,0,1-.89453.32324q-.59033,0-.59082-.47558a4.99645,4.99645,0,0,1,.37109-.86719q.42921-.91405.458-.97168a26.9,26.9,0,0,0,1.19922-3.62793q.06738-.419.23828-1.42871.24756-1.25684.667-1.25684.48487,0,.48536.64746a13.35416,13.35416,0,0,1-.82813,3.25684,27.10974,27.10974,0,0,1-1.42871,3.5625q.90381-.24756,2.80957-.90527a24.10916,24.10916,0,0,0,2.457-.94239q.20948-1.248.64746-2.95312.60058-2.32324.95215-2.32324.50538,0,.50488.48535a12.34183,12.34183,0,0,1-.59961,2.21875A13.29871,13.29871,0,0,0,233.32275,119.25312Z"/></svg>