<?xml version="1.0" encoding="UTF-8" standalone="no"?>
<!-- Created with Inkscape (http://www.inkscape.org/) -->

<svg
   xmlns:dc="http://purl.org/dc/elements/1.1/"
   xmlns:cc="http://creativecommons.org/ns#"
   xmlns:rdf="http://www.w3.org/1999/02/22-rdf-syntax-ns#"
   xmlns:svg="http://www.w3.org/2000/svg"
   xmlns="http://www.w3.org/2000/svg"
   xmlns:sodipodi="http://sodipodi.sourceforge.net/DTD/sodipodi-0.dtd"
   xmlns:inkscape="http://www.inkscape.org/namespaces/inkscape"
   width="44.496548mm"
   height="30.627792mm"
   viewBox="0 0 44.496548 30.627792"
   version="1.1"
   id="svg8520"
   inkscape:version="0.92.4 (5da689c313, 2019-01-14)"
   sodipodi:docname="EMC.svg">
  <defs
     id="defs8514" />
  <sodipodi:namedview
     id="base"
     pagecolor="#ffffff"
     bordercolor="#666666"
     borderopacity="1.0"
     inkscape:pageopacity="0.0"
     inkscape:pageshadow="2"
     inkscape:zoom="3.959798"
     inkscape:cx="76.304377"
     inkscape:cy="35.022552"
     inkscape:document-units="mm"
     inkscape:current-layer="layer1"
     showgrid="false"
     inkscape:window-width="1920"
     inkscape:window-height="1027"
     inkscape:window-x="1272"
     inkscape:window-y="-8"
     inkscape:window-maximized="1"
     fit-margin-top="0"
     fit-margin-left="0"
     fit-margin-right="0"
     fit-margin-bottom="0" />
  <metadata
     id="metadata8517">
    <rdf:RDF>
      <cc:Work
         rdf:about="">
        <dc:format>image/svg+xml</dc:format>
        <dc:type
           rdf:resource="http://purl.org/dc/dcmitype/StillImage" />
        <dc:title></dc:title>
      </cc:Work>
    </rdf:RDF>
  </metadata>
  <g
     inkscape:label="Layer 1"
     inkscape:groupmode="layer"
     id="layer1"
     transform="translate(-97.991143,-73.202519)">
    <path
       id="path9076"
       style="fill:#000000;stroke-width:0.08466666"
       d="m 109.3823,73.203031 c -0.0462,0.0088 -0.0837,0.133914 -0.0837,0.370004 0,0.266827 -0.0348,0.380854 -0.11628,0.380854 -0.064,0 -0.23533,0.02413 -0.38085,0.05323 -0.25758,0.05148 -0.26459,0.04434 -0.26459,-0.254249 0,-0.168804 -0.0381,-0.306956 -0.0847,-0.306956 -0.0466,0 -0.0847,0.164425 -0.0847,0.365352 0,0.334812 -0.025,0.377211 -0.2992,0.507979 -0.37837,0.180446 -0.36208,0.183832 -0.39378,-0.08372 -0.0147,-0.124465 -0.0755,-0.241953 -0.13487,-0.261482 -0.0818,-0.02685 -0.0942,0.0498 -0.0517,0.315227 0.0495,0.309427 0.0278,0.380497 -0.18293,0.60048 -0.2921,0.304874 -0.37672,0.313258 -0.37672,0.03772 0,-0.116419 -0.0434,-0.211357 -0.0961,-0.211357 -0.0634,0 -0.0797,0.11825 -0.0486,0.349848 0.0343,0.255796 -7.9e-4,0.447918 -0.13074,0.715203 -0.17902,0.368467 -0.31729,0.418841 -0.31729,0.115239 0,-0.09039 -0.0382,-0.164332 -0.0847,-0.164332 -0.0466,0 -0.0847,0.07498 -0.0847,0.166915 0,0.151061 0.45934,1.980374 0.57464,2.288233 h 5.3e-4 c 0.11762,0.314147 0.10218,-0.27349 -0.0196,-0.743625 -0.0724,-0.279514 -0.13178,-0.587208 -0.13178,-0.683678 0,-0.192305 0.25345,-0.774113 0.33745,-0.774113 0.0289,0 0.10046,0.285854 0.15917,0.635104 0.0587,0.34925 0.14555,0.635103 0.19275,0.635103 0.0486,0 0.0659,-0.101685 0.0398,-0.233061 -0.24694,-1.243301 -0.24704,-1.29662 -0.002,-1.552361 0.12665,-0.132199 0.25882,-0.222977 0.29352,-0.201538 0.0347,0.02146 0.0897,0.306183 0.12248,0.632521 0.0328,0.326334 0.0936,0.61442 0.13539,0.64027 0.0983,0.06062 0.0966,-0.30058 -0.005,-0.918808 -0.0978,-0.597326 -0.0723,-0.673655 0.28577,-0.844391 l 0.28216,-0.134361 0.0527,0.386541 c 0.0292,0.212508 0.0532,0.530947 0.0532,0.707966 0,0.17702 0.0441,0.348988 0.0982,0.382405 0.0734,0.04536 0.0852,-0.144145 0.0455,-0.748273 l -0.0532,-0.809252 0.22996,-0.05478 c 0.12651,-0.03015 0.29677,-0.07449 0.37827,-0.0987 0.12077,-0.03589 0.14779,0.0093 0.14779,0.245462 0,0.569868 0.11067,1.330153 0.19327,1.330153 0.0528,0 0.0683,-0.299429 0.0419,-0.804087 l -0.0419,-0.8046 h 0.41135 0.41134 l 0.008,0.656291 c 0.005,0.360891 0.0374,0.751747 0.0729,0.868164 0.11935,0.391268 0.201,-0.046 0.1447,-0.776182 l -0.0522,-0.675926 0.27286,0.05943 c 0.66759,0.145174 0.65422,0.12541 0.65422,0.962213 0,0.417505 0.0376,0.782542 0.0842,0.811321 0.0541,0.03341 0.0847,-0.224914 0.0847,-0.714685 0,-0.860501 0.0146,-0.875604 0.55035,-0.572574 l 0.339,0.191201 0.0243,0.780831 c 0.0133,0.429395 0.0593,0.780833 0.10232,0.780833 0.0429,0 0.0893,-0.324046 0.10284,-0.720371 l 0.0243,-0.720886 0.42323,0.276987 0.42375,0.276984 0.0419,0.740524 c 0.0685,1.199499 0.21187,0.888609 0.21187,-0.45992 0,-0.847561 -0.0296,-1.209431 -0.10025,-1.233 -0.0593,-0.01977 -0.11071,0.07296 -0.12661,0.227377 l -0.0269,0.260964 -0.44493,-0.300239 c -0.4113,-0.277719 -0.44442,-0.325376 -0.44442,-0.636653 0,-0.185031 -0.0382,-0.336415 -0.0847,-0.336415 -0.0466,0 -0.0847,0.114033 -0.0847,0.253733 0,0.303495 -0.0499,0.310123 -0.54777,0.06821 -0.35306,-0.171556 -0.38344,-0.211453 -0.38344,-0.503328 0,-0.174238 -0.0382,-0.34019 -0.0847,-0.368969 -0.0511,-0.03158 -0.0847,0.08309 -0.0847,0.288869 0,0.235292 -0.0324,0.329899 -0.10542,0.305409 -0.0582,-0.01953 -0.26821,-0.07698 -0.46612,-0.12764 -0.34723,-0.0889 -0.35967,-0.103667 -0.35967,-0.427366 0,-0.18447 -0.0382,-0.335381 -0.0847,-0.335381 -0.0466,0 -0.0847,0.15602 -0.0847,0.347266 0,0.282295 -0.0251,0.338344 -0.13384,0.296624 -0.0737,-0.02826 -0.25915,-0.05168 -0.41238,-0.05168 -0.25954,0 -0.28239,-0.02297 -0.33279,-0.338482 -0.0366,-0.229089 -0.0918,-0.33646 -0.13798,-0.327628 z m 23.91378,1.597319 -0.5364,0.910537 c -0.29519,0.500594 -0.8988,1.528513 -1.341,2.284616 -0.44219,0.7561 -0.83006,1.358635 -0.86196,1.338937 -0.0319,-0.01971 -0.6655,-1.046914 -1.40819,-2.283066 l -1.3503,-2.247923 -4.55063,-0.0011 -4.55114,-0.0016 v 4.359941 4.360458 h 4.65708 4.65656 l 0.005,-1.883608 c 0.003,-1.283867 0.0323,-1.843548 0.0899,-1.756998 0.0465,0.06985 0.4585,0.736497 0.9157,1.481564 l 0.83096,1.354955 0.67851,0.02429 0.67851,0.02429 0.91984,-1.575615 0.91933,-1.575614 0.0227,1.953368 0.0227,1.953371 h 4.61264 4.61316 v -4.360458 -4.360457 h -4.51136 z m -23.27764,0.08475 c -0.1038,0 -0.12712,0.143444 -0.12661,0.783416 5.3e-4,0.430741 0.0251,1.040114 0.0548,1.354439 0.0405,0.428715 0.0857,0.571539 0.18138,0.571539 0.1086,0 0.11936,-0.122229 0.0729,-0.825272 -0.0301,-0.454025 -0.055,-1.063913 -0.0553,-1.354955 -2.6e-4,-0.413732 -0.0278,-0.529167 -0.12712,-0.529167 z m -0.98961,0.06046 c -0.0149,-0.0037 -0.0309,7.94e-4 -0.0481,0.01138 -0.0833,0.05178 -0.0883,0.284207 -0.0227,1.07642 0.0461,0.555916 0.0845,1.134885 0.0853,1.286227 0.001,0.192297 0.041,0.274918 0.13333,0.274918 0.1157,0 0.12479,-0.129043 0.0739,-1.037145 -0.066,-1.179087 -0.11768,-1.585781 -0.22169,-1.611786 z m 1.96577,0.02429 c -0.0972,0 -0.1271,2.556949 -0.031,2.653069 0.031,0.03104 0.1072,0.05633 0.1695,0.05633 0.0917,0 0.10386,-0.237796 0.0636,-1.248502 -0.0536,-1.346814 -0.0692,-1.460894 -0.20206,-1.460894 z m -2.78122,0.254764 c -0.0274,-0.0016 -0.0676,0.01799 -0.10232,0.05271 -0.0558,0.05579 -0.0413,0.467468 0.0429,1.221631 0.0699,0.625814 0.12722,1.204735 0.12764,1.286227 0.001,0.170127 0.1345,0.200218 0.1881,0.04237 0.0425,-0.125045 -0.17499,-2.535047 -0.23409,-2.594155 -0.006,-0.0056 -0.0131,-0.0082 -0.0222,-0.0088 z m 3.81217,0.175702 c -0.0319,-7.94e-4 -0.0578,0.0051 -0.0703,0.01757 -0.0249,0.02492 -0.0179,0.620569 0.0155,1.322916 0.0472,0.990457 0.0869,1.277443 0.17622,1.277443 0.092,0 0.11472,-0.25609 0.11472,-1.272791 0,-1.068954 -0.0205,-1.280806 -0.13022,-1.322917 -0.0359,-0.01378 -0.074,-0.02135 -0.10594,-0.02222 z m 26.37048,0.14831 c 0.67104,-0.0057 1.32891,0.14619 1.27641,0.294555 -0.0196,0.05537 -0.12527,0.359095 -0.23513,0.674894 -0.15434,0.443653 -0.22959,0.562102 -0.33124,0.521933 -0.34611,-0.13679 -1.01681,-0.137345 -1.42576,-0.0016 -0.51568,0.171281 -1.14325,0.702125 -1.39474,1.180291 -0.24856,0.472456 -0.25238,1.300411 -0.009,1.835547 0.67874,1.491114 2.34885,1.877102 3.54965,0.820105 0.37581,-0.330788 0.71417,-0.860224 0.71417,-1.117246 0,-0.152077 0.0287,-0.155511 0.42323,-0.05064 0.16299,0.04333 0.45568,0.120131 0.65009,0.170532 0.33303,0.08634 0.34951,0.104838 0.28681,0.323493 -0.33173,1.15665 -1.53741,2.257763 -2.84479,2.598293 -2.09564,0.545846 -4.04225,-0.687163 -4.49223,-2.845306 -0.2947,-1.413388 0.36435,-2.869932 1.68465,-3.723288 0.66817,-0.431853 1.43589,-0.67551 2.14767,-0.681611 z m -18.09088,0.0987 h 2.66702 2.66702 v 0.635103 0.635103 h -1.86242 -1.86294 v 0.804084 0.804604 h 1.65107 1.65106 v 0.592211 0.592728 h -1.65106 -1.65107 v 0.846979 0.84646 h 1.90531 1.9048 v 0.635103 0.635103 h -2.7094 -2.70939 V 79.16081 Z m -12.8695,0.15658 c -0.0926,-0.01537 -0.0793,0.358439 0.0398,1.303795 0.0836,0.663752 0.17122,1.240158 0.19482,1.28106 h 5.3e-4 c 0.0235,0.04091 0.0714,0.0218 0.10645,-0.04238 0.0631,-0.115893 -0.20859,-2.425528 -0.29559,-2.512507 -0.0176,-0.01754 -0.0328,-0.02778 -0.046,-0.02997 z m 5.67459,0.14056 c -0.0124,0.0019 -0.0228,0.0063 -0.0305,0.01394 -0.10475,0.104762 -0.0627,2.357263 0.046,2.465999 0.0559,0.05588 0.13168,0.101804 0.16898,0.101804 0.0372,0 0.0677,-0.547981 0.0677,-1.217496 0,-0.915064 -0.0283,-1.240661 -0.11369,-1.311548 -0.0469,-0.0389 -0.10121,-0.05832 -0.13849,-0.05271 z m -3.50005,0.634068 c -0.0868,0 -0.1032,0.160941 -0.0739,0.719852 0.0236,0.448699 0.006,0.719336 -0.047,0.719336 -0.0466,0 -0.20381,0.02413 -0.34933,0.05323 -0.26352,0.0528 -0.26416,0.05176 -0.2651,-0.317812 -0.001,-0.4973 -0.0902,-1.005104 -0.1757,-1.005104 -0.0382,0 -0.0467,0.319854 -0.0191,0.711067 l 0.0501,0.711584 -0.25786,0.133323 c -0.31025,0.160452 -0.35584,0.09485 -0.36484,-0.526065 -0.003,-0.217382 -0.0417,-0.471176 -0.0858,-0.564306 -0.054,-0.114073 -0.0665,0.08219 -0.0382,0.600998 0.0399,0.732486 0.0317,0.779613 -0.16382,0.963247 l -0.20515,0.192755 -0.0424,-0.201023 c -0.0231,-0.11067 -0.0653,-0.383037 -0.0941,-0.605131 -0.0288,-0.222094 -0.081,-0.386366 -0.11575,-0.364834 -0.0349,0.02154 -0.0283,0.327276 0.015,0.679543 0.0581,0.472418 0.0516,0.707138 -0.0258,0.894003 -0.14994,0.362008 -0.22283,0.315132 -0.28163,-0.181385 -0.0504,-0.425249 -0.10185,-0.564227 -0.18035,-0.485757 -0.0215,0.02146 0.0369,0.570722 0.13022,1.220597 0.25126,1.750886 0.24962,1.740885 0.33642,1.687235 0.045,-0.02781 0.0801,0.08251 0.0801,0.251148 0,0.17114 -0.0422,0.301789 -0.0977,0.301789 -0.0721,0 -0.0859,0.471202 -0.0537,1.798857 0.0238,0.989542 0.0195,1.710314 -0.009,1.601454 -0.0338,-0.127675 -0.12171,0.217858 -0.24805,0.973582 -0.10772,0.644379 -0.21633,1.242854 -0.24133,1.330153 -0.0294,0.102838 -0.0125,0.138168 0.0481,0.100769 0.0515,-0.03186 0.0968,-0.160462 0.10077,-0.285771 0.004,-0.125481 0.0257,-0.180414 0.0491,-0.122473 0.0233,0.05794 -0.0178,0.370742 -0.0915,0.694531 -0.0736,0.323451 -0.13372,0.635257 -0.13384,0.694016 v 5.29e-4 c 1.7e-4,0.07118 0.0278,0.07766 0.0858,0.01963 0.0473,-0.04729 0.1639,-0.496046 0.2589,-0.997355 0.17548,-0.924814 0.17823,-1.353688 0.006,-0.813387 l -0.0946,0.296621 0.0475,-0.338997 c 0.026,-0.186267 0.12246,-0.414848 0.21446,-0.507979 0.16658,-0.168759 0.16705,-0.167423 0.10955,0.42323 -0.0733,0.752235 0.0194,0.688245 0.12919,-0.0894 0.0612,-0.433387 0.13059,-0.626581 0.2651,-0.735872 0.10029,-0.0815 0.2125,-0.148312 0.2496,-0.148312 0.037,0 0.0543,0.06682 0.0382,0.148312 -0.0815,0.412152 -0.10681,1.138327 -0.0372,1.068668 0.0426,-0.04257 0.10294,-0.349827 0.13384,-0.682646 0.0483,-0.519496 0.0815,-0.61195 0.23513,-0.65319 0.40636,-0.10907 0.418,-0.09054 0.3669,0.584462 -0.0264,0.34925 -0.0164,0.635103 0.0217,0.635103 0.0381,0 0.0962,-0.304946 0.12919,-0.677479 l 0.06,-0.67696 h 0.34158 0.34158 l -0.0579,0.634584 c -0.0339,0.374068 -0.0249,0.635106 0.0212,0.635106 0.11179,0 0.18039,-0.310967 0.18139,-0.825275 l 10e-4,-0.444415 h 0.38085 0.38086 v 0.682127 c 0,0.433327 0.031,0.663165 0.0847,0.629936 0.0466,-0.02878 0.0847,-0.340013 0.0847,-0.691946 0,-0.622258 0.005,-0.638763 0.19068,-0.589114 0.10478,0.02808 0.27609,0.05152 0.38086,0.0522 0.1804,0.0011 0.19068,0.03493 0.19068,0.631486 0,0.346501 0.0382,0.653349 0.0847,0.682128 0.0536,0.03312 0.0847,-0.182454 0.0847,-0.58756 v -0.640271 l 0.23255,0.0016 c 0.55293,0.0028 0.61391,0.06157 0.61391,0.594277 0,0.52278 0.0554,0.759127 0.17829,0.759127 0.0416,0 0.0754,-0.280151 0.0754,-0.622699 v -0.623219 l 0.42374,0.08371 0.42323,0.08372 v 0.623735 c 0,0.498027 0.0257,0.624252 0.12713,0.624252 0.10779,0 0.1266,-0.211997 0.1266,-1.397331 0,-1.185333 -0.0188,-1.396814 -0.1266,-1.396814 -0.0999,0 -0.12713,0.117612 -0.12713,0.550354 0,0.603229 -0.0104,0.611532 -0.58239,0.497128 l -0.26458,-0.05271 v -0.577225 c 0,-0.3174 -0.0376,-0.600642 -0.0842,-0.62942 -0.0534,-0.033 -0.0847,0.16882 -0.0847,0.545703 0,0.659865 0.0143,0.646954 -0.61391,0.543118 l -0.31781,-0.05271 v -0.623734 c 0,-0.359503 -0.0354,-0.623735 -0.0842,-0.623735 -0.0485,0 -0.0847,0.255469 -0.0847,0.597379 v 0.597382 l -0.36018,-0.02585 -0.35967,-0.02635 -0.0248,-0.6134 c -0.0319,-0.786611 -0.18706,-0.804177 -0.18706,-0.02119 v 0.59273 h -0.38086 -0.38085 v -0.64027 c 0,-0.405106 -0.0311,-0.620684 -0.0847,-0.587563 -0.0466,0.02878 -0.0847,0.316537 -0.0847,0.639754 v 0.588079 h -0.34623 -0.34675 l 0.0284,-0.544671 c 0.0386,-0.750811 -0.0612,-0.782873 -0.12351,-0.03979 -0.0279,0.332412 -0.062,0.615948 -0.076,0.629936 -0.014,0.014 -0.12991,0.0516 -0.25787,0.08372 l -0.23254,0.05839 -0.006,-0.580843 c -0.007,-0.68716 -0.14761,-0.507738 -0.15762,0.200504 -0.005,0.394039 -0.0313,0.455279 -0.23874,0.562758 l -0.23254,0.120923 0.0134,-0.563274 0.0129,-0.562756 -0.0977,0.66249 c -0.0698,0.471697 -0.141,0.685848 -0.2465,0.744659 -0.18861,0.105133 -0.20207,-0.06418 -0.0212,-0.264067 0.15315,-0.16919 0.34184,-2.141974 0.20929,-2.187464 -0.12108,-0.04158 -0.0999,-0.213132 0.0491,-0.399976 0.12102,-0.151778 0.12881,-0.120581 0.10181,0.40721 -0.016,0.314328 0.001,0.571542 0.0382,0.571542 0.0371,0 0.0677,-0.302932 0.0677,-0.672827 0,-0.601356 0.0199,-0.686525 0.19017,-0.806151 l 0.19069,-0.133842 0.0248,0.639754 c 0.0326,0.841095 0.18707,0.746797 0.18707,-0.114205 0,-0.648665 0.002,-0.654706 0.25373,-0.749826 l 0.25425,-0.0956 v 0.674897 c 0,0.428421 0.031,0.65591 0.0847,0.622699 0.0466,-0.02878 0.0842,-0.331824 0.0842,-0.673343 0,-0.649597 0.0443,-0.723988 0.43046,-0.723988 0.14651,0 0.16227,0.06622 0.16227,0.677479 0,0.39511 0.0354,0.677476 0.0847,0.677476 0.0494,0 0.0847,-0.282366 0.0847,-0.677476 v -0.677479 h 0.38085 0.38137 v 0.719852 c 0,0.423334 0.035,0.719855 0.0847,0.719855 0.0494,0 0.0847,-0.282369 0.0847,-0.677479 0,-0.646316 0.008,-0.677027 0.19017,-0.675928 0.52277,0.0032 0.56271,0.05381 0.58911,0.748276 0.0136,0.358632 0.0627,0.647504 0.10956,0.647504 0.0466,0 0.0958,-0.276307 0.10955,-0.613916 0.027,-0.666369 0.0293,-0.668742 0.54674,-0.525031 l 0.31729,0.08837 v 0.673343 c 0,0.392459 0.0354,0.673344 0.0847,0.673344 0.049,0 0.0847,-0.268214 0.0847,-0.635104 0,-0.692065 7e-5,-0.692446 0.51573,-0.53795 l 0.32401,0.09715 0.0248,0.637169 c 0.016,0.41587 0.0611,0.648933 0.13023,0.671793 0.0819,0.0271 0.10594,-0.291941 0.10594,-1.411282 0,-1.229235 -0.0192,-1.446424 -0.12713,-1.446424 -0.0999,0 -0.12712,0.117613 -0.12712,0.550355 0,0.600966 -0.006,0.606001 -0.51935,0.452167 l -0.32711,-0.09818 v -0.663525 c 0,-0.386178 -0.0356,-0.664043 -0.0847,-0.664043 -0.049,0 -0.0847,0.26869 -0.0847,0.636654 v 0.636653 l -0.23306,-0.05788 c -0.7129,-0.17662 -0.65348,-0.105355 -0.68058,-0.819071 -0.032,-0.843013 -0.18707,-0.847709 -0.18707,-0.0057 0,0.627439 -0.005,0.64343 -0.19068,0.593763 -0.10478,-0.02808 -0.27608,-0.05152 -0.38086,-0.05219 -0.1815,-0.0011 -0.19017,-0.03289 -0.19017,-0.673343 0,-0.369785 -0.0382,-0.695725 -0.0847,-0.724504 -0.0538,-0.03323 -0.0847,0.196607 -0.0847,0.629936 v 0.682128 h -0.38137 -0.38086 V 81.14986 c 0,-0.39511 -0.0354,-0.67696 -0.0847,-0.67696 -0.0494,0 -0.0848,0.28185 -0.0848,0.67696 0,0.611264 -0.0157,0.677479 -0.16226,0.677479 -0.0893,0 -0.22241,0.02342 -0.29611,0.05168 -0.11481,0.04406 -0.13435,-0.04012 -0.13435,-0.588076 0,-0.351486 -0.0376,-0.662652 -0.0842,-0.691431 -0.0538,-0.03322 -0.0847,0.196009 -0.0847,0.627351 0,0.585002 -0.0228,0.691409 -0.16381,0.766879 -0.36,0.19268 -0.41972,0.123013 -0.45062,-0.526066 l -0.0295,-0.613918 -0.0165,0.6935 c -0.0149,0.612925 -0.0394,0.709435 -0.20774,0.827854 l -0.19017,0.133843 -0.0486,-0.573609 -0.0486,-0.573606 -0.0181,0.635103 c -0.0103,0.362971 -0.0698,0.725469 -0.13901,0.84646 l -0.12092,0.211873 -0.003,-0.227893 c -0.002,-0.12531 0.0342,-0.251013 0.0796,-0.279054 0.0865,-0.05345 0.0362,-1.774489 -0.0631,-2.160074 -0.0423,-0.16433 -0.0666,-0.107794 -0.108,0.25373 l -0.0532,0.465606 -0.0108,-0.507979 c -0.006,-0.288163 0.0391,-0.597225 0.10387,-0.714168 0.10745,-0.193935 0.1193,-0.168416 0.2005,0.423746 l 0.0863,0.62942 -0.007,-0.719855 c -0.007,-0.740794 0.0983,-1.100706 0.32298,-1.100706 0.097,0 0.12402,0.127905 0.12402,0.58756 0,0.353079 0.0389,0.612219 0.0977,0.648539 0.0727,0.04496 0.0829,-0.133869 0.0403,-0.698148 l -0.0574,-0.758611 0.29817,-0.14211 0.29817,-0.142111 v 0.718304 c 0,0.422421 0.0349,0.717786 0.0847,0.717786 0.0501,0 0.0847,-0.307031 0.0847,-0.752409 V 78.54382 l 0.28732,-0.03359 c 0.28227,-0.03295 0.28798,-0.02663 0.33848,0.341582 0.0283,0.206118 0.0517,0.540573 0.0517,0.743622 0,0.203052 0.0382,0.369488 0.0847,0.369488 0.0502,0 0.0847,-0.310671 0.0847,-0.762228 0,-0.734123 0.007,-0.761777 0.19017,-0.760677 0.542,0.0033 0.57154,0.04511 0.57154,0.812872 0,0.416748 0.0351,0.710033 0.0847,0.710033 0.0498,0 0.0847,-0.296521 0.0847,-0.719852 0,-0.395819 0.0287,-0.71959 0.0636,-0.719336 0.0349,2.6e-4 0.20623,0.04038 0.38085,0.08888 l 0.3173,0.08785 v 0.715719 c 0,0.579724 0.0243,0.715719 0.12712,0.715719 0.1023,0 0.12713,-0.131331 0.12713,-0.67696 0,-0.372533 0.0124,-0.677479 0.0274,-0.677479 0.015,0 0.20538,0.06064 0.42323,0.134877 l 0.39636,0.134874 v 0.712618 c 0,0.418029 0.0345,0.711584 0.0842,0.711584 0.0494,0 0.0847,-0.280845 0.0847,-0.672825 v -0.672312 l 0.42013,0.174149 0.42013,0.174667 0.0243,0.681612 c 0.0152,0.423333 0.0619,0.694455 0.12299,0.714685 0.1215,0.04021 0.20218,-2.755072 0.0842,-2.918685 -0.1609,-0.223219 -0.22479,-0.08478 -0.22479,0.486793 0,0.325967 -0.0141,0.592728 -0.0315,0.592728 -0.0174,0 -0.20829,-0.07832 -0.42375,-0.173633 l -0.39171,-0.173117 v -0.668692 c 0,-0.367607 -0.0382,-0.691589 -0.0847,-0.72037 -0.0538,-0.03322 -0.0848,0.194879 -0.0848,0.624768 v 0.676963 l -0.44441,-0.150897 -0.44442,-0.150894 -0.0243,-0.732772 c -0.031,-0.93005 -0.18758,-0.967581 -0.18758,-0.04496 v 0.68833 l -0.35709,-0.05736 c -0.19652,-0.03142 -0.38659,-0.102627 -0.42219,-0.158647 -0.0356,-0.05602 -0.0649,-0.3972 -0.0656,-0.758092 -8e-4,-0.380135 -0.0373,-0.656291 -0.0863,-0.656291 -0.0498,0 -0.0847,0.296521 -0.0847,0.719852 v 0.719336 h -0.38086 -0.38085 v -0.719336 c 0,-0.539843 -0.0282,-0.719852 -0.11214,-0.719852 z m -2.76469,0.07286 c -0.0924,-0.02572 -0.0672,0.308801 0.0796,1.129647 0.10244,0.572828 0.2065,1.112803 0.231,1.200443 0.031,0.110929 0.0636,0.128453 0.10749,0.05736 0.0628,-0.101672 -0.27744,-2.260759 -0.37104,-2.354379 -0.018,-0.01799 -0.0338,-0.0294 -0.047,-0.03307 z m 3.29334,2.199349 c -0.11071,-0.01394 -0.14012,0.399121 -0.1018,1.347205 0.0402,0.99599 0.0711,1.206646 0.17622,1.206646 0.1099,0 0.1202,-0.170029 0.077,-1.236618 -0.0275,-0.680135 -0.0718,-1.258294 -0.0987,-1.285195 -0.0192,-0.0191 -0.0369,-0.03005 -0.0527,-0.03204 z m -0.88263,0.0987 c -0.1465,0 -0.15735,0.241816 -0.0724,1.630391 0.0445,0.727708 0.0775,0.885899 0.17622,0.848011 0.0764,-0.0293 0.10358,-0.112831 0.0734,-0.225311 -0.0264,-0.09835 -0.0484,-0.645504 -0.0491,-1.215946 -0.001,-0.864968 -0.0223,-1.037145 -0.12816,-1.037145 z m 1.86293,0.08475 c -0.10699,0 -0.12712,0.1925 -0.12712,1.227314 0,1.034815 0.0201,1.227834 0.12712,1.227834 0.1071,0 0.12661,-0.193019 0.12661,-1.227834 0,-1.034814 -0.0195,-1.227314 -0.12661,-1.227314 z m -2.63653,0.168981 c -0.1161,0 -0.12933,0.06357 -0.0842,0.392742 0.0296,0.216048 0.0537,0.77202 0.0537,1.235067 0,0.635894 0.026,0.833319 0.10594,0.806667 0.0601,-0.02005 0.10329,-0.16928 0.10129,-0.345715 -0.0269,-1.971831 -0.0369,-2.088761 -0.17674,-2.088761 z m 3.63131,0.105936 c -0.0814,-0.02706 -0.10594,0.24932 -0.10594,1.199412 0,1.050949 0.0191,1.235065 0.12919,1.235065 0.11083,0 0.12614,-0.170265 0.10594,-1.199925 -0.017,-0.867148 -0.0527,-1.20913 -0.12919,-1.234552 z m -4.24212,0.313677 c -0.0828,-0.02577 -0.0881,0.254326 -0.0419,1.217496 0.032,0.667118 0.0908,1.157036 0.13901,1.157036 0.0908,0 0.0363,-2.25303 -0.0568,-2.34611 -0.0151,-0.01506 -0.0285,-0.02474 -0.0403,-0.02842 z m 5.225,0.05891 c -0.0709,0.02357 -0.0729,0.25408 -0.0729,1.120344 0,0.868315 0.0281,1.191138 0.10593,1.219047 0.0582,0.02093 0.13409,0.02177 0.16899,0.0021 0.0349,-0.01974 0.0636,-0.527634 0.0636,-1.128614 0,-1.006039 -0.0131,-1.09995 -0.16898,-1.183392 -0.0413,-0.02214 -0.073,-0.03731 -0.0966,-0.02945 z m -3.79821,2.993099 c -0.0524,0 -0.0848,0.451162 -0.0848,1.184939 0,0.73378 0.0323,1.185458 0.0848,1.185458 0.0524,0 0.0847,-0.451678 0.0847,-1.185458 0,-0.733777 -0.0323,-1.184939 -0.0847,-1.184939 z m 0.89141,0 c -0.10999,0 -0.12919,0.178935 -0.12919,1.192176 0,0.916217 0.0241,1.184571 0.10542,1.157552 0.0762,-0.02532 0.11271,-0.359474 0.12971,-1.192694 0.0202,-0.991976 0.005,-1.157034 -0.10594,-1.157034 z m 0.92914,0.08423 c -0.10649,0 -0.12712,0.182118 -0.12712,1.129128 0,0.62089 0.0253,1.154419 0.0563,1.185458 0.16135,0.161358 0.1974,-0.04573 0.1974,-1.129131 0,-0.997183 -0.0198,-1.185455 -0.12661,-1.185455 z m -2.51922,0.105937 c -0.0759,0.02519 -0.11229,0.351025 -0.12919,1.150315 -0.0261,1.233371 0.0945,1.512322 0.17983,0.415997 0.0871,-1.117939 0.0711,-1.606743 -0.0506,-1.566312 z m 3.514,0.08475 c -0.0812,-0.02697 -0.10594,0.232312 -0.10594,1.114661 0,0.975529 0.0194,1.150318 0.12919,1.150318 0.11083,0 0.12614,-0.160896 0.10594,-1.115179 -0.0169,-0.79929 -0.0533,-1.124601 -0.12919,-1.1498 z m 1.02784,0.233061 c -0.0946,0 -0.11782,0.213945 -0.11782,1.086239 0,0.597606 0.0252,1.112041 0.0563,1.143082 0.14012,0.140139 0.17483,-0.0069 0.22583,-0.954982 0.0571,-1.06131 0.0297,-1.274339 -0.16433,-1.274339 z m -5.17229,0.04547 c -0.005,-0.0049 -0.0101,-0.0048 -0.0155,0.0011 -0.0409,0.04424 -0.0938,0.565894 -0.11782,1.159619 -0.0431,1.066326 0.034,1.449038 0.13849,0.686781 0.0759,-0.553463 0.0675,-1.773967 -0.005,-1.847434 z m -0.57155,0.765844 c 0.004,0.0065 0.009,0.02519 0.0139,0.05736 0.0196,0.128699 0.0191,0.319096 -0.001,0.42323 -0.0201,0.104135 -0.0357,-7.94e-4 -0.0351,-0.233577 5.3e-4,-0.174627 0.009,-0.266432 0.0222,-0.247015 z m 2.72594,2.172997 c -0.0759,0.02522 -0.11229,0.350509 -0.1292,1.1498 -0.0202,0.954283 -0.005,1.115176 0.10594,1.115176 0.10985,0 0.12919,-0.174786 0.12919,-1.150316 0,-0.882351 -0.0247,-1.141632 -0.10593,-1.11466 z m -0.90434,0.02066 c -0.0449,0.02736 -0.10351,0.426707 -0.14366,1.178221 -0.0491,0.917528 -0.0396,1.08295 0.061,1.049549 0.0931,-0.03095 0.12464,-0.288803 0.14314,-1.174088 0.0154,-0.736423 -0.0156,-1.081045 -0.0605,-1.053682 z m 1.91203,0.04289 c -0.0825,0 -0.12978,0.195078 -0.16898,0.698664 -0.0703,0.901962 -0.0699,1.459757 0.001,1.530657 0.18913,0.18909 0.28216,-0.29873 0.28216,-1.478978 0,-0.573828 -0.0267,-0.750343 -0.11421,-0.750343 z m -2.65876,0.08475 c -0.10862,0 -0.16491,0.325932 -0.23771,1.375627 -0.0373,0.537401 -0.0273,0.825788 0.0284,0.825788 0.12222,0 0.16937,-0.259098 0.23667,-1.291391 0.0393,-0.603816 0.0302,-0.910024 -0.0274,-0.910024 z m 3.66231,0.08475 c -0.1064,0 -0.12712,0.178784 -0.12712,1.100709 0,0.921922 0.0207,1.10019 0.12712,1.10019 0.1064,0 0.12661,-0.178268 0.12661,-1.10019 0,-0.921925 -0.0202,-1.100709 -0.12661,-1.100709 z m -4.35994,0.162782 c -0.0139,-0.0013 -0.0306,0.0083 -0.0501,0.02791 -0.0472,0.04721 -0.28029,1.634947 -0.28629,1.947166 -0.005,0.280541 0.15189,0.147513 0.19999,-0.169497 0.19167,-1.26211 0.23374,-1.796582 0.13642,-1.805575 z m 5.3759,0.0062 c -0.1061,0 -0.12712,0.174035 -0.12712,1.058334 0,0.884287 0.021,1.058333 0.12712,1.058333 0.1061,0 0.12661,-0.174046 0.12661,-1.058333 0,-0.884299 -0.0205,-1.058334 -0.12661,-1.058334 z m 26.19375,0.338998 c -0.99867,-0.0016 -1.64786,0.371575 -2.06085,1.184423 -0.54579,1.07425 -0.60412,3.41331 -0.11731,4.714441 0.26814,0.716679 0.7254,1.162542 1.42627,1.392163 0.11672,0.0387 0.50595,0.05812 0.86506,0.04392 0.54885,-0.02172 0.71716,-0.06597 1.05679,-0.275953 0.45192,-0.279389 0.77424,-0.713949 0.99735,-1.34462 0.18878,-0.533509 0.27632,-2.722954 0.1385,-3.462319 -0.10768,-0.577572 -0.44466,-1.358479 -0.71262,-1.650029 -0.32997,-0.359037 -0.97065,-0.601117 -1.59319,-0.60203 z m -5.749,0.01344 c -0.53941,0.0078 -1.1448,0.08703 -1.52187,0.219106 l -0.46561,0.163298 -0.0253,0.532268 c -0.0197,0.41197 -0.001,0.521092 0.0842,0.48369 1.1037,-0.483619 1.22847,-0.518898 1.85002,-0.520898 0.69136,-0.0027 0.97488,0.113321 1.23145,0.50488 0.19255,0.293939 0.17027,1.050838 -0.0434,1.469676 -0.26954,0.528341 -1.09635,1.420193 -2.24482,2.422591 l -1.06402,0.928627 v 0.489892 0.489894 h 2.41329 2.41277 v -0.42323 -0.42323 l -1.84123,-0.0041 -1.84175,-0.0041 0.55036,-0.477491 c 0.30269,-0.262631 0.95235,-0.879959 1.44384,-1.37201 1.11162,-1.112898 1.37627,-1.590389 1.38027,-2.489769 0.004,-1.022781 -0.50917,-1.687936 -1.48208,-1.92133 -0.2126,-0.051 -0.51248,-0.07236 -0.83612,-0.0677 z m -6.26319,0.02842 c -0.73099,0 -0.84137,0.02143 -1.21284,0.239779 -0.81768,0.480626 -1.15528,1.318434 -1.22008,3.030304 -0.0521,1.37695 0.0538,2.114058 0.40876,2.84634 0.27359,0.56446 0.60625,0.877335 1.14257,1.073835 0.77251,0.283052 1.78384,0.117616 2.35541,-0.385505 0.46747,-0.41148 0.70775,-0.899928 0.85834,-1.744597 0.32038,-1.797071 -0.006,-3.780046 -0.74414,-4.51807 -0.4565,-0.456506 -0.7085,-0.542086 -1.58802,-0.542086 z m -5.75727,0.0072 c -0.72506,0.0055 -1.09293,0.04838 -1.4397,0.168984 l -0.46561,0.162264 -0.0248,0.529167 c -0.0138,0.291039 -0.009,0.529166 0.0114,0.529166 0.0203,0 0.28046,-0.113855 0.57826,-0.253217 1.43764,-0.672745 2.69589,-0.277865 2.69389,0.845945 -0.001,0.824611 -0.71644,1.76004 -2.60243,3.403925 l -0.86764,0.756544 v 0.501777 0.502815 h 2.41277 2.41329 v -0.423749 -0.42323 l -1.88412,-0.0031 c -1.63597,-0.0024 -1.86335,-0.01818 -1.72703,-0.121438 0.0863,-0.0654 0.58483,-0.502301 1.10743,-0.971 1.61742,-1.450599 2.16472,-2.277144 2.16472,-3.268535 0,-0.793139 -0.35287,-1.380459 -1.05833,-1.761133 -0.29394,-0.158613 -0.46698,-0.181584 -1.31206,-0.175184 z m -11.93829,0.62787 c -0.0465,0 -0.0851,0.181358 -0.0858,0.402558 -0.002,0.68816 -0.0555,0.782899 -0.44183,0.782899 h -0.33848 l 0.0351,-0.550354 c 0.0193,-0.302681 0.009,-0.550355 -0.0222,-0.550355 -0.0736,0 -0.16278,0.448093 -0.16278,0.817523 0,0.29218 -0.0216,0.312111 -0.4532,0.40721 l -0.24184,0.05323 0.061,-0.607714 c 0.0399,-0.39724 0.0319,-0.589105 -0.0233,-0.555005 -0.0465,0.02868 -0.11138,0.302231 -0.14418,0.608232 -0.0523,0.48796 -0.0856,0.566137 -0.26975,0.636135 -0.35255,0.13404 -0.38691,0.104545 -0.32711,-0.280086 0.0308,-0.19791 0.0752,-0.426479 0.0982,-0.507978 0.023,-0.08146 10e-4,-0.147797 -0.0486,-0.147797 -0.0497,0 -0.0904,0.05487 -0.0904,0.122476 0,0.421468 -0.19829,0.977456 -0.39429,1.105874 -0.1173,0.07685 -0.22895,0.124005 -0.24805,0.104904 -0.019,-0.0191 0.0253,-0.235251 0.0982,-0.480591 0.0729,-0.245351 0.1117,-0.467077 0.0863,-0.492477 -0.0253,-0.0254 -0.0636,0.0069 -0.0847,0.07183 -0.0211,0.06488 -0.19425,0.622284 -0.38499,1.238684 -0.19074,0.6164 -0.37153,1.184871 -0.40153,1.262973 h 5.3e-4 c -0.0356,0.0933 -0.0218,0.121597 0.0403,0.0832 0.0522,-0.03229 0.17893,-0.319304 0.28164,-0.638204 0.13928,-0.432451 0.24614,-0.614799 0.41961,-0.717269 0.12792,-0.07559 0.25194,-0.137459 0.27544,-0.137459 0.0235,0 -0.0109,0.199948 -0.076,0.444418 -0.0651,0.24448 -0.11765,0.520816 -0.11679,0.613915 0.003,0.275619 0.13133,-0.01378 0.25477,-0.572574 0.11767,-0.532681 0.17262,-0.603081 0.53537,-0.68988 0.24163,-0.05784 0.24275,-0.05625 0.18655,0.263549 -0.0311,0.176919 -0.0781,0.445524 -0.10439,0.596863 -0.0269,0.15482 -0.0118,0.274918 0.0346,0.274918 0.0454,0 0.12871,-0.285854 0.18501,-0.635104 0.0937,-0.580599 0.11917,-0.635103 0.30075,-0.635103 0.10922,0 0.26277,-0.02426 0.34107,-0.05426 0.1287,-0.0494 0.13655,0.0071 0.0816,0.592731 -0.039,0.415509 -0.0305,0.646988 0.0238,0.646988 0.0466,0 0.11148,-0.285853 0.14418,-0.635103 l 0.0594,-0.634588 h 0.38395 0.38396 l -0.06,0.634588 c -0.0369,0.39416 -0.0281,0.635103 0.0227,0.635103 0.11528,0 0.184,-0.305522 0.185,-0.825273 l 0.001,-0.444418 h 0.43098 0.43047 l -0.0594,0.634588 c -0.0379,0.403659 -0.0291,0.635103 0.0243,0.635103 0.10387,0 0.18965,-0.407646 0.18965,-0.899687 0,-0.347961 0.0144,-0.369969 0.23306,-0.368969 0.57733,0.0029 0.61392,0.04587 0.61392,0.72812 0,0.36031 0.0359,0.625285 0.0847,0.625285 0.049,0 0.0847,-0.268214 0.0847,-0.635104 v -0.634587 l 0.23255,5.29e-4 c 0.56267,0.0028 0.60469,0.04989 0.63149,0.706417 0.0135,0.332679 0.063,0.605131 0.10955,0.605131 0.0466,0 0.0958,-0.276307 0.10955,-0.613916 0.0272,-0.670861 0.0311,-0.674886 0.59945,-0.561207 l 0.26458,0.05323 v 0.581877 c 0,0.46096 0.0266,0.582393 0.12713,0.582393 0.1076,0 0.1266,-0.207256 0.1266,-1.354955 0,-1.14771 -0.019,-1.354439 -0.1266,-1.354439 -0.0999,0 -0.12713,0.117615 -0.12713,0.550354 v 0.550355 h -0.42323 -0.42323 v -0.592731 c 0,-0.470368 -0.0263,-0.592727 -0.12712,-0.592727 -0.1,0 -0.12712,0.118134 -0.12712,0.555003 v 0.555014 l -0.40205,-0.02585 -0.40204,-0.02582 -0.0253,-0.613915 c -0.032,-0.789197 -0.18655,-0.802932 -0.18655,-0.01654 v 0.597379 l -0.40204,-0.02585 -0.40257,-0.02582 -0.0248,-0.616501 c -0.0308,-0.76264 -0.18655,-0.738428 -0.18655,0.02894 v 0.545187 h -0.38085 -0.38137 v -0.59273 c 0,-0.338669 -0.0364,-0.592728 -0.0848,-0.592728 z m 17.74362,0.168981 c 0.44241,0 0.50491,0.02484 0.80047,0.320395 0.46216,0.462179 0.54167,0.831408 0.54467,2.516124 0.003,1.625261 -0.10305,2.114986 -0.55035,2.543516 -0.21391,0.204938 -0.33502,0.246316 -0.78083,0.268716 -1.1521,0.05775 -1.5012,-0.59618 -1.5012,-2.812232 0,-2.186147 0.34079,-2.836519 1.48724,-2.836519 z m 12.06542,0.01757 c 0.51955,0.01905 0.80666,0.227733 1.03663,0.725538 0.17044,0.36884 0.185,0.531633 0.185,2.09341 0,1.561772 -0.0146,1.724057 -0.185,2.092896 -0.11235,0.2432 -0.29476,0.467382 -0.46561,0.571543 -0.18906,0.115308 -0.41944,0.168846 -0.70435,0.164846 -0.52022,-0.0078 -0.61521,-0.04116 -0.91312,-0.318842 -0.396,-0.36912 -0.51987,-0.967121 -0.51987,-2.510443 0,-1.567947 0.12123,-2.135161 0.54261,-2.538862 0.2186,-0.20941 0.33987,-0.251886 0.786,-0.276985 0.0842,-0.0047 0.16349,-0.0058 0.23771,-0.0031 z m -29.40286,1.760615 c -0.13919,0 -0.23516,0.677899 -0.23616,1.672251 -5.3e-4,0.414189 0.0272,0.529167 0.12661,0.529167 0.0909,0 0.12712,-0.09253 0.12712,-0.325562 0,-0.17911 0.0245,-0.674458 0.0548,-1.100709 0.0467,-0.658 0.0358,-0.775145 -0.0724,-0.775147 z m -0.97462,0.01394 c -0.01,-0.0024 -0.0207,-0.0016 -0.0331,0.0026 -0.0779,0.02588 -0.13715,0.238607 -0.17415,0.625287 -0.0308,0.322199 -0.0778,0.805043 -0.10439,1.072801 -0.0378,0.380301 -0.0228,0.486794 0.0682,0.486794 0.15464,0 0.19732,-0.206727 0.26872,-1.302248 0.0438,-0.673118 0.0419,-0.868743 -0.0253,-0.885216 z m -0.95498,0.05839 c -0.0154,0.0043 -0.0329,0.01638 -0.0527,0.03617 -0.066,0.06595 -0.35299,2.043416 -0.30799,2.121318 0.1068,0.184769 0.23211,-0.193456 0.3607,-1.088306 0.10768,-0.74913 0.10772,-1.09942 0,-1.069186 z m 2.92075,0.01241 c -0.0929,0 -0.12729,0.09649 -0.12764,0.359666 -2.6e-4,0.197911 -0.0249,0.674164 -0.0548,1.058334 -0.0525,0.674999 -0.0481,0.698666 0.12764,0.698666 0.17589,0 0.1819,-0.0321 0.1819,-1.058333 0,-0.884301 -0.021,-1.058333 -0.12713,-1.058333 z m 1.01597,0.08475 c -0.10611,0 -0.12713,0.174043 -0.12713,1.058334 0,0.884301 0.021,1.058333 0.12713,1.058333 0.10609,0 0.12712,-0.174032 0.12712,-1.058333 0,-0.884291 -0.021,-1.058334 -0.12712,-1.058334 z m 1.1007,0.08423 c -0.1057,0 -0.12712,0.167886 -0.12712,1.002006 0,0.55104 0.0252,1.027332 0.0563,1.058334 0.15946,0.159419 0.19793,-0.03412 0.19793,-1.002007 0,-0.88429 -0.021,-1.058333 -0.12713,-1.058333 z m -5.8477,0.02894 c -0.0122,0.0021 -0.0269,0.01191 -0.0444,0.02946 -0.0891,0.08909 -0.49988,1.687692 -0.50022,1.946134 2.5e-4,0.06936 0.0475,0.1103 0.10542,0.09095 0.0581,-0.01937 0.1896,-0.413073 0.29197,-0.874882 0.18637,-0.840822 0.23262,-1.207169 0.14728,-1.191659 z m -0.75345,0.241329 c -0.0121,0.0048 -0.0268,0.01648 -0.045,0.03462 -0.0988,0.0988 -0.67748,1.784474 -0.67748,1.973524 0,0.32107 0.25472,-0.168642 0.50074,-0.962731 0.24059,-0.776422 0.3062,-1.079071 0.22169,-1.045416 z m 2.88717,0.867132 c -0.0781,0.01281 -0.13109,0.254799 -0.15865,0.725535 l -0.0222,0.380857 -0.447,0.02582 c -0.4274,0.02455 -0.44572,0.01688 -0.40772,-0.169497 0.1065,-0.52225 0.13019,-0.914672 0.0553,-0.914672 -0.045,0 -0.10534,0.142663 -0.13384,0.317293 -0.12839,0.785321 -0.12676,0.783447 -0.36432,0.784447 -0.12436,5.3e-4 -0.31835,0.02572 -0.43098,0.05581 -0.16672,0.04458 -0.19502,0.02886 -0.15141,-0.08475 0.1159,-0.30199 0.17183,-1.014881 0.0749,-0.954982 -0.0522,0.03223 -0.11955,0.242713 -0.14935,0.467672 -0.0723,0.5451 -0.1205,0.604809 -0.53123,0.659908 -0.40326,0.05409 -0.41369,0.02661 -0.22686,-0.58911 0.0671,-0.221192 0.0861,-0.402561 0.0424,-0.402561 -0.0437,0 -0.14631,0.233926 -0.22841,0.519866 -0.12748,0.444069 -0.18897,0.536803 -0.42168,0.635103 -0.49221,0.20795 -0.54776,0.165939 -0.35966,-0.272851 0.18778,-0.43819 0.21766,-0.628489 0.0765,-0.48731 -0.0808,0.08077 -1.18029,2.374165 -1.18029,2.461866 v 5.29e-4 c 0,0.01961 0.0477,0.02072 0.10593,0.0021 0.0582,-0.01868 0.23907,-0.298143 0.40205,-0.620633 0.26712,-0.52854 0.32821,-0.593609 0.61856,-0.659908 0.17716,-0.0404 0.34295,-0.05237 0.36846,-0.02687 0.0386,0.03863 -0.0883,0.499229 -0.29559,1.073319 -0.0376,0.104101 -0.0227,0.108114 0.0832,0.02222 0.071,-0.05765 0.19967,-0.337754 0.28577,-0.622183 0.11748,-0.388012 0.20707,-0.536364 0.35811,-0.593762 0.17938,-0.0682 0.70012,-0.109496 0.69712,-0.0553 -5.3e-4,0.01164 -0.0574,0.230683 -0.12609,0.486794 -0.1463,0.545161 -0.15567,0.677476 -0.0481,0.677476 0.0434,0 0.14244,-0.285853 0.22014,-0.635103 0.14111,-0.634238 0.14162,-0.635103 0.4222,-0.635103 0.1545,0 0.34686,-0.0249 0.42736,-0.05581 0.1328,-0.05097 0.14092,-0.0072 0.0868,0.471289 -0.0328,0.290158 -0.0809,0.581838 -0.10646,0.648539 -0.0274,0.07138 0.005,0.121438 0.078,0.121438 0.091,0 0.14437,-0.164766 0.19947,-0.613915 l 0.0749,-0.613915 0.45217,-0.02585 0.45216,-0.02582 -0.0599,0.639752 c -0.0381,0.407061 -0.0292,0.639754 0.0243,0.639754 0.10387,0 0.19017,-0.407646 0.19017,-0.899686 v -0.37052 h 0.47284 0.47335 l -0.0279,0.607197 c -0.0198,0.429051 0.003,0.617022 0.077,0.641821 0.0775,0.02585 0.10541,-0.133019 0.10541,-0.606679 v -0.642339 h 0.33177 c 0.5686,0 0.59945,0.03588 0.59945,0.686779 0,0.332621 0.0365,0.583427 0.0847,0.583427 0.0484,0 0.0847,-0.254069 0.0847,-0.592727 v -0.592731 h 0.46561 0.4656 v 0.635104 c 0,0.366892 0.0358,0.635103 0.0847,0.635103 0.0489,0 0.0847,-0.268211 0.0847,-0.635103 0,-0.703469 0.011,-0.713513 0.66663,-0.582393 l 0.26458,0.05323 v 0.581877 c 0,0.46096 0.0266,0.582395 0.12713,0.582393 0.1074,2e-6 0.1266,-0.20251 0.1266,-1.31258 0,-1.110069 -0.0192,-1.312066 -0.1266,-1.312066 -0.0988,0 -0.12713,0.112874 -0.12713,0.507979 v 0.507982 h -0.4656 -0.46561 V 91.60659 c 0,-0.310441 -0.037,-0.550354 -0.0847,-0.550354 -0.0478,0 -0.0847,0.239913 -0.0847,0.550354 0,0.60438 0.007,0.598493 -0.59324,0.499195 l -0.29662,-0.04909 5.2e-4,-0.479041 c 8e-4,-0.646139 -0.1624,-0.658302 -0.1943,-0.01447 l -0.0253,0.509011 h -0.4191 -0.41909 v -0.550352 c 0,-0.310451 -0.0369,-0.550354 -0.0847,-0.550354 -0.0465,0 -0.0851,0.161758 -0.0858,0.359666 -0.002,0.673632 -0.0504,0.74104 -0.52865,0.74104 h -0.4253 l 0.0558,-0.544153 c 0.0338,-0.330798 0.0231,-0.564845 -0.0279,-0.596344 -0.0122,-0.0075 -0.024,-0.01013 -0.0352,-0.0083 z m 0.42219,1.910477 c -0.18867,0 -0.19881,0.04162 -0.26561,1.121897 -0.0536,0.868026 -0.0446,0.994769 0.0698,0.994769 0.13582,0 0.15965,-0.13168 0.27233,-1.502751 0.0421,-0.51186 0.0295,-0.613915 -0.0765,-0.613915 z m 1.10071,0 c -0.15845,0 -0.22221,0.380076 -0.22221,1.322916 0,0.610442 0.0267,0.79375 0.11472,0.79375 0.0825,0 0.12927,-0.194558 0.16847,-0.698148 0.0855,-1.09787 0.0717,-1.418518 -0.061,-1.418518 z m -3.22719,0.0072 c -0.0258,-0.0021 -0.0616,2.04e-4 -0.10077,0.0078 -0.10704,0.02061 -0.18937,0.248282 -0.3328,0.916739 -0.10491,0.488932 -0.19337,0.955649 -0.19637,1.037148 -0.008,0.216998 0.23761,0.181044 0.28991,-0.04237 0.0653,-0.278649 0.38189,-1.853626 0.38189,-1.899627 0,-0.0109 -0.0161,-0.01752 -0.0419,-0.01963 z m 1.07435,0.0011 c -0.0186,-0.0016 -0.0425,5.29e-4 -0.0718,0.0062 -0.15637,0.03011 -0.20667,0.246023 -0.39687,1.700155 -0.0461,0.352761 -0.0335,0.402042 0.10283,0.402042 0.13472,0 0.16898,-0.120973 0.25838,-0.910021 0.0567,-0.500592 0.1234,-0.980287 0.1478,-1.066086 0.025,-0.08765 0.0155,-0.12746 -0.0403,-0.132291 z m 3.20859,5.29e-4 c -0.021,-0.0048 -0.0374,-0.004 -0.0444,0.0041 -0.014,0.0163 -0.052,0.496162 -0.0842,1.066601 -0.0571,1.009769 -0.0541,1.037146 0.11575,1.037146 0.16644,0 0.17467,-0.04638 0.17467,-1.01079 0,-0.624721 -0.0346,-1.032103 -0.0904,-1.066602 -0.0248,-0.01511 -0.0503,-0.02569 -0.0713,-0.03049 z m 1.13533,0.07596 c -0.1058,0 -0.12712,0.169288 -0.12712,1.01596 0,0.846669 0.0213,1.015958 0.12712,1.015958 0.1058,0 0.12661,-0.169289 0.12661,-1.015958 0,-0.846672 -0.0208,-1.01596 -0.12661,-1.01596 z m -6.52363,0.0863 c -0.0213,-7.94e-4 -0.0514,0.0055 -0.092,0.01344 -0.0943,0.0186 -0.22937,0.311962 -0.42168,0.916223 -0.15562,0.48895 -0.2838,0.936569 -0.28474,0.99477 -10e-4,0.05823 0.0542,0.105936 0.12247,0.105936 0.0831,0 0.19729,-0.245493 0.34417,-0.740524 0.12089,-0.407455 0.2556,-0.8515 0.2992,-0.986501 0.0775,-0.239858 0.0963,-0.30126 0.0326,-0.303342 z m -1.11931,0.159165 c -0.0246,-0.0058 -0.0694,0.02671 -0.13436,0.09819 -0.0961,0.10578 -0.36513,0.675751 -0.78652,1.667081 -0.108,0.254061 -0.10498,0.275437 0.0414,0.275437 0.1223,0 0.25066,-0.223044 0.56275,-0.976686 0.28357,-0.684795 0.39071,-1.04657 0.31678,-1.064017 z m 4.80642,0.939994 c -0.0466,0 -0.0853,0.123578 -0.0858,0.274917 -5.3e-4,0.151342 -0.0243,0.418111 -0.0532,0.592731 l -0.0527,0.317809 h -0.48576 -0.48524 l 0.0408,-0.613915 c 0.0516,-0.772692 -0.11986,-0.697685 -0.20206,0.08836 l -0.0553,0.52555 h -0.52659 -0.52709 l 0.0698,-0.360185 c 0.093,-0.479639 0.0937,-0.740524 0.002,-0.740524 -0.0414,0 -0.10013,0.142674 -0.13023,0.317294 -0.14107,0.81969 -0.0957,0.762323 -0.65164,0.826823 -0.27949,0.032 -0.52339,0.04352 -0.54208,0.02479 -0.0187,-0.01871 0.0213,-0.241625 0.0889,-0.495575 0.0676,-0.25395 0.12237,-0.518694 0.12144,-0.588595 -0.003,-0.255701 -0.2193,0.151916 -0.33435,0.631487 -0.0778,0.324498 -0.15391,0.469238 -0.24701,0.469738 -0.074,5.29e-4 -0.33423,0.02445 -0.57774,0.05374 l -0.44287,0.05323 0.20981,-0.534334 c 0.11511,-0.293831 0.19301,-0.55009 0.17311,-0.569992 -0.0855,-0.08554 -0.20713,0.09475 -0.38602,0.573093 -0.10523,0.281379 -0.21501,0.524851 -0.24391,0.541051 -0.0289,0.01619 -0.29507,0.05607 -0.59118,0.08837 l -0.53795,0.05839 0.26975,-0.471805 c 0.2601,-0.454602 0.3131,-0.699963 0.12351,-0.573093 -0.05,0.03343 -0.41819,0.623147 -0.81804,1.309997 l -5.3e-4,-5.29e-4 c -0.5827,1.00094 -0.6961,1.249019 -0.57206,1.249019 0.10221,0 0.26595,-0.194091 0.48266,-0.57154 l 0.32814,-0.571542 0.53175,-0.07183 c 0.29227,-0.0394 0.55269,-0.04985 0.5793,-0.02326 0.0266,0.02661 -0.052,0.280813 -0.17519,0.564822 -0.182,0.419661 -0.19896,0.511159 -0.0904,0.48886 0.0735,-0.01508 0.23638,-0.275064 0.36225,-0.577744 l 0.22893,-0.550352 0.54828,-0.04754 c 0.30144,-0.02633 0.56178,-0.03772 0.57878,-0.02532 0.017,0.01238 -0.0449,0.27168 -0.13798,0.57671 -0.1331,0.43602 -0.14511,0.555006 -0.0558,0.555006 0.0673,0 0.18526,-0.241369 0.28991,-0.592731 l 0.17621,-0.592727 h 0.55604 c 0.55078,0 0.55542,0.0016 0.50281,0.211357 -0.0293,0.116448 -0.0767,0.383209 -0.10542,0.592728 -0.0866,0.631981 0.10796,0.441277 0.2372,-0.232543 l 0.11782,-0.613918 0.5333,-0.02532 0.53279,-0.02532 -0.0584,0.596863 c -0.0402,0.408429 -0.0302,0.596863 0.0326,0.596863 0.0504,0 0.11258,-0.133644 0.13798,-0.296624 0.0253,-0.162979 0.0671,-0.429739 0.0925,-0.592728 l 0.046,-0.296106 h 0.51314 0.51263 l -0.0605,0.603062 c -0.0493,0.490583 -0.0391,0.595826 0.0548,0.564825 0.077,-0.02543 0.12376,-0.212479 0.14056,-0.560689 l 0.0253,-0.522449 h 0.50384 0.50385 v 0.550354 c 0,0.310439 0.0369,0.550355 0.0847,0.550355 0.0478,0 0.0847,-0.239916 0.0847,-0.550355 v -0.550354 h 0.50798 0.50798 v 0.592727 c 0,0.338672 0.0363,0.592731 0.0847,0.592731 0.0484,0 0.0847,-0.254059 0.0847,-0.592731 v -0.592727 h 0.46199 0.46147 l 0.0253,0.564824 c 0.0159,0.357558 0.0637,0.577345 0.13075,0.599446 0.0817,0.02701 0.10593,-0.276543 0.10593,-1.333767 0,-1.057223 -0.0242,-1.360771 -0.10593,-1.33377 -0.067,0.02214 -0.11484,0.242403 -0.13075,0.599964 l -0.0253,0.564305 h -0.46147 -0.46199 v -0.592211 c 0,-0.338661 -0.0363,-0.59273 -0.0847,-0.59273 -0.0478,0 -0.0847,0.239916 -0.0847,0.550354 v 0.550355 h -0.46561 -0.4656 v -0.550355 c 0,-0.544769 -0.10191,-0.728115 -0.20051,-0.360185 -0.0281,0.104772 -0.0515,0.352446 -0.0522,0.550355 l -10e-4,0.360185 h -0.4656 -0.46561 v -0.592728 c 0,-0.338672 -0.0363,-0.59273 -0.0847,-0.59273 z m -1.99678,1.859835 c -0.0294,-0.01537 -0.0699,0.0037 -0.12195,0.05581 -0.062,0.06198 -0.41365,1.767822 -0.42065,2.042253 -2.6e-4,0.01119 0.0759,0.02119 0.16898,0.02119 0.0931,0 0.17115,-0.0096 0.17415,-0.02119 0.003,-0.01164 0.0752,-0.459261 0.16123,-0.994773 0.11262,-0.701661 0.12631,-1.057216 0.0382,-1.103291 z m 1.35238,0.01498 c -0.0206,-0.0082 -0.049,-0.0056 -0.0858,0.0016 -0.12834,0.02466 -0.16982,0.136253 -0.21652,0.579808 -0.0318,0.30208 -0.0814,0.768363 -0.11007,1.036114 -0.0476,0.44424 -0.0376,0.486791 0.11317,0.486791 0.17523,0 0.1682,0.03336 0.31781,-1.553393 0.038,-0.402479 0.0433,-0.52615 -0.0186,-0.55087 z m 1.10587,0.0057 c -0.0819,0.01595 -0.11238,0.16913 -0.15193,0.676963 -0.0301,0.38622 -0.0545,0.86405 -0.0548,1.06195 -5.3e-4,0.303541 0.0256,0.359667 0.16846,0.359667 0.15834,0 0.17052,-0.06055 0.18242,-0.931209 0.007,-0.512228 0.0162,-0.978511 0.0212,-1.036111 0.005,-0.05753 -0.0527,-0.116443 -0.12712,-0.130741 -0.014,-0.0027 -0.0265,-0.0028 -0.0382,-5.29e-4 z m -3.83387,0.06667 c -0.13643,0 -0.19891,0.147417 -0.38809,0.910537 -0.1241,0.500591 -0.24663,0.979752 -0.27234,1.065051 -0.0371,0.123002 -0.007,0.149426 0.14677,0.127124 0.1672,-0.02429 0.21848,-0.128894 0.37982,-0.772046 0.31302,-1.24787 0.32126,-1.330666 0.13384,-1.330666 z m 5.07772,0 c -0.17513,0 -0.18138,0.03435 -0.18138,1.015957 0,0.846662 0.0213,1.015958 0.12712,1.015958 0.10024,0 0.12705,-0.120312 0.12765,-0.57154 5.3e-4,-0.31433 0.0249,-0.77148 0.0542,-1.01596 0.0498,-0.414298 0.0412,-0.444415 -0.12764,-0.444415 z m 1.1312,0 c -0.1058,0 -0.12712,0.169288 -0.12712,1.015957 0,0.846662 0.0213,1.015958 0.12712,1.015958 0.1058,0 0.12661,-0.169296 0.12661,-1.015958 0,-0.846669 -0.0208,-1.015957 -0.12661,-1.015957 z m -7.53701,0.09405 c -0.0167,5e-5 -0.0367,0.0029 -0.0594,0.0062 -0.15297,0.02209 -0.252,0.196353 -0.54416,0.958083 -0.19647,0.512228 -0.35976,0.975495 -0.36276,1.029393 -0.006,0.103831 0.30558,0.05713 0.37568,-0.05633 0.0221,-0.03571 0.19279,-0.490628 0.37931,-1.011306 0.28873,-0.80649 0.32798,-0.92641 0.21135,-0.926042 z m -1.43143,0.08785 c -0.0141,-0.0021 -0.0319,-0.0011 -0.0527,0.0021 -0.13806,0.02077 -0.32159,0.275799 -0.7214,1.00149 -0.29504,0.53552 -0.53834,1.004629 -0.54054,1.042829 v 5.29e-4 c -0.002,0.0383 0.0818,0.05676 0.18655,0.04186 0.14922,-0.02119 0.30632,-0.253077 0.72554,-1.070737 0.42204,-0.823198 0.50118,-1.002779 0.40256,-1.018024 z m 3.22357,1.088305 c -0.11379,0 -0.30902,0.613965 -0.30902,0.971515 0,0.08593 -0.17097,0.123513 -0.65629,0.145212 -0.3609,0.01601 -0.6713,0.01881 -0.6904,0.0067 -0.0191,-0.01212 0.0117,-0.184195 0.0687,-0.382405 0.057,-0.19821 0.12284,-0.426995 0.14624,-0.508497 0.0258,-0.08997 -0.003,-0.147794 -0.0739,-0.147794 -0.0683,0 -0.18606,0.218628 -0.28526,0.529167 l -0.16898,0.529167 -0.7369,0.02429 -0.73639,0.02429 0.21187,-0.479039 c 0.24703,-0.558601 0.24421,-0.54312 0.10335,-0.54312 -0.0599,0 -0.22841,0.241408 -0.37414,0.536918 l -0.26458,0.537435 -0.73949,0.05684 c -0.40674,0.0312 -0.75024,0.04608 -0.76326,0.03307 -0.013,-0.01302 0.11101,-0.243985 0.27595,-0.513662 0.16494,-0.269682 0.28234,-0.508301 0.26045,-0.530201 -0.11295,-0.112951 -0.36262,0.148659 -0.96118,1.007174 -0.87954,1.261559 -2.113206,2.945663 -2.956925,4.036953 -0.378024,0.48895 -0.715841,0.93658 -0.750343,0.99478 -0.04452,0.0751 0.01135,0.10593 0.192238,0.10593 0.232913,0 0.34838,-0.12931 1.34307,-1.50275 0.59862,-0.82656 1.32651,-1.85242 1.61747,-2.27944 l 0.52917,-0.776179 0.57981,-0.02791 c 0.55694,-0.02682 0.57611,-0.02154 0.49093,0.141075 -0.26601,0.507741 -1.27079,2.260684 -1.85209,3.230294 -0.36705,0.61224 -0.66766,1.13575 -0.66766,1.16375 0,0.0281 0.0946,0.0512 0.20981,0.0512 0.16885,0 0.27057,-0.10624 0.52451,-0.54777 0.1733,-0.30131 0.3257,-0.53731 0.33849,-0.52451 0.0128,0.0128 -0.01,0.23061 -0.0501,0.4842 -0.0826,0.5188 -0.0635,0.58808 0.16278,0.58808 0.1261,0 0.17007,-0.0834 0.21136,-0.40204 0.17392,-1.34239 0.36759,-1.95472 0.97668,-3.08663 0.66379,-1.233494 0.6535,-1.21722 0.72347,-1.147219 0.0268,0.02683 -0.0645,0.404265 -0.20309,0.839224 -0.35894,1.126935 -0.54188,2.114025 -0.55448,2.992585 -0.0105,0.72956 -0.003,0.76268 0.17983,0.78858 0.1839,0.0261 0.19017,0.004 0.19017,-0.64751 0,-0.81381 0.2554,-2.34344 0.54777,-3.282999 l 0.21342,-0.686781 0.44494,-0.05374 c 0.2447,-0.0294 0.7219,-0.05332 1.0604,-0.05374 l 0.61546,-0.0011 -0.0553,0.233061 c -0.0305,0.128058 -0.35524,1.151909 -0.72141,2.275309 -0.36616,1.12339 -0.66559,2.08794 -0.66559,2.14354 0,0.0556 0.0812,0.0888 0.18087,0.0739 0.15773,-0.0236 0.2555,-0.26805 0.75241,-1.88929 0.314,-1.02446 0.63343,-2.081968 0.71003,-2.349729 l 0.13901,-0.486791 h 0.46354 c 0.25482,0 0.46354,0.01553 0.46354,0.03462 0,0.01908 -0.1736,0.790713 -0.38551,1.71463 -0.63199,2.75538 -0.66238,2.9038 -0.60668,2.9595 0.13772,0.13772 0.31037,-0.0853 0.41238,-0.5333 l 0.11162,-0.49247 0.0884,0.50746 c 0.0671,0.38676 0.12548,0.51423 0.24598,0.53743 0.13893,0.0268 0.15155,-0.009 0.10645,-0.29559 -0.0282,-0.17932 -0.0752,-0.72596 -0.10439,-1.21491 -0.0472,-0.79047 -0.025,-1.01869 0.19999,-2.05879 0.13915,-0.643347 0.28135,-1.195929 0.31574,-1.22783 0.0343,-0.03186 0.0377,0.342524 0.008,0.831474 -0.0573,0.936856 0.0504,2.781306 0.20671,3.539316 0.0721,0.34971 0.12373,0.44278 0.23358,0.41858 0.0777,-0.0171 0.13461,-0.0681 0.12661,-0.11317 -0.18863,-1.03831 -0.28164,-2.12112 -0.28164,-3.28455 v -1.407152 h 0.91364 0.91312 l -0.22996,2.349732 c -0.21843,2.23233 -0.21734,2.65491 0.008,2.42982 0.0443,-0.0443 0.16025,-1.01405 0.25735,-2.15491 0.24372,-2.864317 0.18478,-2.624642 0.64441,-2.624642 h 0.38137 l -0.0486,0.698664 c -0.10313,1.469998 -0.21394,3.419888 -0.21394,3.766178 0,0.26467 0.0336,0.36122 0.12661,0.36122 0.0885,0 0.13046,-0.096 0.13746,-0.31729 0.005,-0.17462 0.0361,-0.43184 0.0682,-0.57154 0.0522,-0.22766 0.0646,-0.20565 0.12041,0.21239 0.0714,0.53516 0.17684,0.75946 0.29817,0.63355 0.0516,-0.0536 0.005,-0.49788 -0.12971,-1.22732 -0.18353,-0.99488 -0.2049,-1.29553 -0.16329,-2.32027 0.0263,-0.647508 0.0698,-1.198331 0.0961,-1.224731 0.10168,-0.10168 0.20571,0.220395 0.20671,0.641305 0.003,0.962516 0.4919,3.936666 0.67799,4.122746 0.1753,0.1753 0.1677,-0.048 -0.0351,-1.05937 -0.1907,-0.95074 -0.47207,-3.051036 -0.47232,-3.524847 -1e-4,-0.182499 0.0303,-0.190685 0.70435,-0.190685 h 0.70435 l -0.006,2.384352 c -0.004,1.83614 0.0188,2.39251 0.10025,2.42001 0.083,0.0281 0.10594,-0.48568 0.10594,-2.38435 v -2.420012 h 0.33693 0.33745 l 0.0227,2.384872 c 0.0171,1.81633 0.0476,2.3932 0.12816,2.42 0.0767,0.0256 0.10817,-0.11191 0.11317,-0.50074 l 0.008,-0.5364 0.1111,0.40462 c 0.15872,0.57711 0.20164,0.67049 0.28474,0.61909 0.0405,-0.0251 -0.0184,-0.41814 -0.13126,-0.87333 -0.14574,-0.58771 -0.21561,-1.14699 -0.24081,-1.92857 l -0.0357,-1.100193 0.20051,1.015963 c 0.24129,1.22489 0.63569,2.76368 0.73639,2.87269 0.16926,0.18321 0.13955,-0.0671 -0.13746,-1.16685 -0.35404,-1.40561 -0.71248,-3.467396 -0.77928,-4.481901 -0.0573,-0.869 -0.22135,-0.969576 -0.26045,-0.159681 l -0.0253,0.522449 h -0.46147 -0.46148 v -0.550352 c 0,-0.310441 -0.0369,-0.550355 -0.0847,-0.550355 -0.0478,0 -0.0847,0.239914 -0.0847,0.550355 v 0.550352 h -0.50797 -0.50798 v -0.55707 c 0,-0.408112 -0.0284,-0.54805 -0.10594,-0.522449 -0.0655,0.02162 -0.11514,0.233585 -0.13074,0.55707 l -0.0253,0.522449 h -0.54881 -0.5488 l 0.0579,-0.561721 c 0.0473,-0.461651 0.036,-0.554649 -0.0615,-0.522449 -0.0808,0.0267 -0.12646,0.206116 -0.14365,0.561721 l -0.0253,0.522449 h -0.59067 -0.59117 l 0.0563,-0.550352 c 0.0378,-0.369782 0.0268,-0.550355 -0.0341,-0.550355 -0.10523,0 -0.15188,0.142804 -0.22738,0.698664 l -0.0543,0.402043 h -0.63562 c -0.56415,0 -0.63101,-0.0168 -0.59531,-0.14831 0.0221,-0.08149 0.0643,-0.262342 0.0941,-0.402042 0.0298,-0.1397 0.074,-0.320543 0.0982,-0.402045 0.028,-0.09436 -0.002,-0.14831 -0.0817,-0.14831 z m 25.93795,0.08475 v 3.179653 3.17965 l 0.40205,-0.0259 0.40256,-0.0258 0.0227,-1.7141 0.0227,-1.71411 0.4191,-0.21188 c 0.51949,-0.263287 1.15924,-0.28783 1.44642,-0.0553 0.24734,0.20029 0.31556,0.71597 0.32556,2.44636 l 0.007,1.2914 h 0.38086 0.38137 l -0.002,-1.757 c -0.002,-1.93727 -0.0677,-2.252461 -0.5488,-2.630849 -0.53291,-0.419151 -1.19585,-0.423831 -1.96835,-0.01344 l -0.44442,0.236162 v -1.092438 -1.092441 h -0.42323 z m -13.9702,0.235645 v 3.061828 3.06183 l 0.40204,-0.0259 0.40204,-0.0258 0.0238,-1.11207 0.0238,-1.11208 0.82269,-0.0357 c 0.87833,-0.0381 1.21079,-0.15167 1.65675,-0.56534 0.39257,-0.36414 0.58498,-0.82729 0.58498,-1.409216 0,-0.570031 -0.12924,-0.89046 -0.50075,-1.243335 -0.44995,-0.4274 -0.80952,-0.520438 -2.16627,-0.559138 z m 0.84646,0.780312 h 0.63769 c 0.72739,0 1.11656,0.13139 1.38027,0.466641 0.37484,0.476527 0.16342,1.396125 -0.38654,1.680515 -0.13153,0.068 -0.55259,0.15109 -0.93534,0.18449 l -0.69608,0.061 v -1.196315 z m 20.391,0.676963 c -0.40694,0 -0.93225,0.04158 -1.16737,0.09198 l -0.42736,0.09147 v 0.360185 c 0,0.197929 0.0226,0.382298 0.0501,0.409798 0.0275,0.0275 0.20776,-0.006 0.40101,-0.0739 0.75626,-0.266782 1.82387,-0.225081 2.07843,0.08165 0.0517,0.0623 0.11657,0.22633 0.14418,0.36432 l 0.0501,0.25115 -0.9095,0.094 c -1.54953,0.16071 -2.15336,0.61301 -2.15336,1.61334 0,0.65034 0.21858,1.01136 0.8046,1.32963 0.38306,0.20803 1.267,0.13028 1.78025,-0.15658 0.22001,-0.12296 0.4141,-0.22376 0.4315,-0.22376 0.0174,0 0.032,0.0955 0.032,0.21188 0,0.19446 0.0309,0.21135 0.38086,0.21135 h 0.38085 v -1.85001 c 0,-1.77925 -0.007,-1.86119 -0.1912,-2.137863 -0.31182,-0.46922 -0.81444,-0.668692 -1.68517,-0.668692 z m -10.28413,0.01035 c -0.14154,5.29e-4 -0.31625,0.0061 -0.5395,0.01447 -0.53551,0.02011 -1.04039,0.06504 -1.12189,0.09973 -0.11207,0.04778 -0.1478,0.163412 -0.1478,0.473874 v 0.410319 l 0.35967,-0.127649 c 0.52157,-0.185182 1.33465,-0.244308 1.70067,-0.123507 0.3403,0.11231 0.56431,0.367936 0.56431,0.644396 0,0.16434 -0.0713,0.18652 -0.88109,0.27492 -1.04822,0.11446 -1.48434,0.27257 -1.82624,0.66198 -0.30564,0.34814 -0.37426,0.58766 -0.32246,1.12654 0.047,0.48872 0.30194,0.87682 0.72915,1.11001 0.44408,0.24242 1.28904,0.18799 1.8371,-0.11834 0.22001,-0.12296 0.4141,-0.22374 0.4315,-0.22374 0.0174,0 0.032,0.0975 0.032,0.21652 0,0.2052 0.0205,0.21519 0.40204,0.19069 l 0.40205,-0.0259 0.0258,-1.39734 c 0.0413,-2.23871 -0.0684,-2.63874 -0.83096,-3.03289 -0.26161,-0.135186 -0.38978,-0.176133 -0.81442,-0.174149 z m -5.28081,0.07441 v 2.229843 c 0,1.22625 0.0253,2.25464 0.0563,2.28565 l 5.3e-4,5.3e-4 c 0.0311,0.031 0.22144,0.0563 0.42323,0.0563 h 0.3669 v -1.63762 -1.63763 l 0.44442,-0.24546 c 0.37504,-0.20706 0.53374,-0.244164 1.01596,-0.236166 l 0.57154,0.0093 V 99.596247 99.18387 h -0.41083 c -0.48294,0 -0.87306,0.120954 -1.28261,0.396875 l -0.29611,0.199472 -0.0264,-0.298175 c -0.0262,-0.297238 -0.0274,-0.298172 -0.44442,-0.298172 z m 16.6796,2.177133 v 0.60358 0.60358 l -0.34882,0.23099 c -0.47952,0.31733 -1.28391,0.37746 -1.60971,0.12041 -0.27204,-0.21461 -0.34852,-0.55816 -0.20258,-0.90744 0.14246,-0.34095 0.58837,-0.51998 1.4795,-0.59428 z m -10.58333,0.001 v 0.63923 0.63872 l -0.44028,0.21963 c -0.56445,0.28131 -1.21249,0.29937 -1.5379,0.0434 -0.17848,-0.14043 -0.22324,-0.2472 -0.22324,-0.53537 0,-0.61362 0.37673,-0.84042 1.5782,-0.9493 z"
       inkscape:connector-curvature="0" />
  </g>
</svg>
